<!DOCTYPE svg PUBLIC "-//W3C//DTD SVG 20010904//EN" "http://www.w3.org/TR/2001/REC-SVG-20010904/DTD/svg10.dtd">
<svg version="1.0" xmlns="http://www.w3.org/2000/svg" width="256px" height="256px" viewBox="0 0 2560 2560" preserveAspectRatio="xMidYMid meet"><g fill="#696d6f" stroke="none">
 <path d="M1695 539 c-10 -25 -1 -239 10 -242 14 -3 19 233 6 246 -7 7 -12 5 -16 -4z"/>
 <path d="M1615 260 c-8 -13 20 -24 41 -16 20 8 9 26 -16 26 -10 0 -22 -5 -25 -10z"/>
 </g>

<g fill="#96989a" stroke="none">
 <path d="M13 2545 c-15 -16 -17 -35 -5 -35 10 0 42 33 42 43 0 12 -25 7 -37 -8z"/>
 <path d="M2510 2552 c0 -10 33 -42 43 -42 12 0 8 21 -7 36 -16 15 -36 19 -36 6z"/>
 <path d="M1577 304 c-3 -5 3 -20 12 -33 11 -14 21 -19 25 -13 3 5 -2 20 -12 33 -11 12 -21 18 -25 13z"/>
 <path d="M0 39 c0 -14 25 -39 39 -39 17 0 13 15 -7 33 -21 20 -32 22 -32 6z"/>
 <path d="M2527 32 c-20 -21 -22 -32 -6 -32 14 0 39 25 39 39 0 17 -15 13 -33 -7z"/>
 </g>

<g fill="#8b9ca6" stroke="none">
 <path d="M1201 1837 c-6 -8 -8 -17 -5 -20 10 -9 45 13 39 24 -9 13 -21 11 -34 -4z"/>
 <path d="M1355 1841 c-7 -13 32 -34 47 -25 7 5 5 11 -7 21 -22 15 -32 16 -40 4z"/>
 <path d="M1556 1762 c-3 -5 15 -25 39 -46 25 -20 44 -40 42 -44 -1 -4 1 -8 6 -9 16 -6 19 -2 7 12 -7 8 -9 15 -5 15 11 0 -25 38 -57 61 -15 11 -29 16 -32 11z"/>
 <path d="M1006 1731 c-15 -16 -23 -31 -18 -35 5 -3 21 8 36 23 15 16 23 31 18 35 -5 3 -21 -8 -36 -23z"/>
 <path d="M1255 1641 c-7 -12 12 -24 25 -16 11 7 4 25 -10 25 -5 0 -11 -4 -15 -9z"/>
 <path d="M1326 1641 c-9 -15 23 -36 35 -24 8 8 5 14 -9 22 -12 6 -23 7 -26 2z"/>
 <path d="M1205 1610 c-4 -6 -10 -8 -15 -5 -5 3 -11 1 -14 -4 -4 -5 -2 -12 3 -15 5 -4 12 -2 16 4 4 6 10 8 15 5 5 -3 11 -1 14 4 4 5 2 12 -3 15 -5 4 -12 2 -16 -4z"/>
 <path d="M1135 1560 c-11 -17 5 -32 21 -19 7 6 11 15 8 20 -7 12 -21 11 -29 -1z"/>
 <path d="M1456 1542 c-3 -6 1 -15 8 -21 8 -7 17 -8 20 -3 3 6 -1 15 -8 21 -8 7 -17 8 -20 3z"/>
 <path d="M1046 902 c-3 -5 2 -20 12 -33 24 -29 36 -11 13 20 -11 14 -21 19 -25 13z"/>
 <path d="M1221 836 c-7 -8 -8 -17 -3 -20 6 -3 15 1 21 8 7 8 8 17 3 20 -6 3 -15 -1 -21 -8z"/>
 <path d="M1135 831 c-7 -12 12 -24 25 -16 11 7 4 25 -10 25 -5 0 -11 -4 -15 -9z"/>
 </g>

<g fill="#748a95" stroke="none">
 <path d="M1191 1836 c-7 -8 -8 -17 -3 -20 6 -3 15 1 21 8 7 8 8 17 3 20 -6 3 -15 -1 -21 -8z"/>
 <path d="M1375 1841 c-7 -12 12 -24 25 -16 11 7 4 25 -10 25 -5 0 -11 -4 -15 -9z"/>
 <path d="M1112 1808 c-7 -7 -12 -8 -12 -4 0 5 -7 3 -15 -4 -8 -7 -12 -16 -9 -22 3 -5 12 -4 21 4 9 7 21 13 27 13 13 0 21 18 9 22 -5 2 -14 -2 -21 -9z"/>
 <path d="M1496 1802 c-3 -6 1 -15 8 -21 8 -7 17 -8 20 -3 3 6 -1 15 -8 21 -8 7 -17 8 -20 3z"/>
 <path d="M1536 1771 c-4 -5 -2 -12 4 -16 5 -3 10 -3 10 1 0 3 6 1 14 -5 10 -8 16 -9 21 -1 3 5 4 11 1 11 -3 1 -9 2 -13 3 -5 1 -13 5 -20 9 -6 4 -14 3 -17 -2z"/>
 <path d="M990 1725 c-22 -22 -30 -39 -24 -44 5 -6 21 5 42 29 41 49 26 61 -18 15z"/>
 <path d="M1636 1682 c-2 -4 4 -18 13 -31 21 -27 33 -17 20 17 -8 22 -24 29 -33 14z"/>
 <path d="M925 1640 c-4 -6 -3 -16 3 -22 6 -6 12 -6 17 2 4 6 3 16 -3 22 -6 6 -12 6 -17 -2z"/>
 <path d="M1335 1641 c-7 -12 12 -24 25 -16 11 7 4 25 -10 25 -5 0 -11 -4 -15 -9z"/>
 <path d="M1232 1628 c-7 -7 -12 -8 -12 -4 0 5 -7 3 -15 -4 -8 -7 -12 -16 -9 -22 3 -5 12 -4 21 4 9 7 21 13 27 13 13 0 21 18 9 22 -5 2 -14 -2 -21 -9z"/>
 <path d="M1416 1592 c-3 -5 3 -17 13 -26 11 -10 22 -13 25 -8 3 5 -3 17 -13 26 -11 10 -22 13 -25 8z"/>
 <path d="M1134 838 c-7 -10 30 -28 59 -28 14 0 30 7 37 15 7 8 11 15 9 16 -36 4 -101 3 -105 -3z"/>
 </g>

<g fill="#454c53" stroke="none">
 <path d="M14 2515 c-26 -40 -10 -50 19 -11 21 27 24 36 13 36 -9 0 -23 -11 -32 -25z"/>
 <path d="M2535 2510 c-4 -7 0 -19 9 -28 13 -14 16 -14 16 -2 0 25 -16 44 -25 30z"/>
 <path d="M1706 542 c-3 -5 -6 -66 -7 -135 -1 -130 -4 -138 -44 -144 -34 -5 -47 -12 -40 -23 9 -15 41 -12 55 5 6 8 15 13 18 12 4 -1 7 0 7 3 0 3 8 16 18 30 14 20 17 46 17 137 0 100 -8 140 -24 115z"/>
 <path d="M0 79 c0 -22 33 -63 48 -58 6 2 -1 19 -18 39 -20 24 -30 30 -30 19z"/>
 <path d="M2527 56 c-21 -27 -24 -36 -13 -36 18 0 50 44 44 61 -2 6 -16 -5 -31 -25z"/>
 </g>

<g fill="#667c88" stroke="none">
 <path d="M20 2535 c-22 -27 -5 -37 19 -11 19 20 21 26 9 26 -9 0 -21 -7 -28 -15z"/>
 <path d="M2521 2524 c13 -14 25 -20 27 -14 5 15 -17 40 -36 40 -12 0 -10 -6 9 -26z"/>
 <path d="M1181 1836 c-7 -8 -8 -17 -3 -20 6 -3 15 1 21 8 7 8 8 17 3 20 -6 3 -15 -1 -21 -8z"/>
 <path d="M1395 1831 c-7 -12 12 -24 25 -16 11 7 4 25 -10 25 -5 0 -11 -4 -15 -9z"/>
 <path d="M1115 1821 c-7 -12 12 -24 25 -16 11 7 4 25 -10 25 -5 0 -11 -4 -15 -9z"/>
 <path d="M1456 1822 c-3 -6 1 -15 8 -21 8 -7 17 -8 20 -3 3 6 -1 15 -8 21 -8 7 -17 8 -20 3z"/>
 <path d="M1536 1782 c-3 -6 1 -15 8 -21 8 -7 17 -8 20 -3 3 6 -1 15 -8 21 -8 7 -17 8 -20 3z"/>
 <path d="M1035 1766 c-11 -8 -14 -16 -8 -19 6 -4 18 0 28 7 11 8 14 16 8 19 -6 4 -18 0 -28 -7z"/>
 <path d="M986 1731 c-10 -11 -13 -22 -8 -25 5 -3 17 3 26 13 10 11 13 22 8 25 -5 3 -17 -3 -26 -13z"/>
 <path d="M950 1681 c-6 -12 -6 -22 -1 -26 6 -3 15 3 21 14 6 12 6 22 1 26 -6 3 -15 -3 -21 -14z"/>
 <path d="M1235 1641 c-7 -12 12 -24 25 -16 11 7 4 25 -10 25 -5 0 -11 -4 -15 -9z"/>
 <path d="M1355 1631 c-7 -12 12 -24 25 -16 11 7 4 25 -10 25 -5 0 -11 -4 -15 -9z"/>
 <path d="M1396 1612 c-2 -4 10 -20 29 -35 38 -30 57 -21 22 10 -31 28 -45 35 -51 25z"/>
 <path d="M1035 920 c-4 -6 -3 -16 3 -22 6 -6 12 -6 17 2 4 6 3 16 -3 22 -6 6 -12 6 -17 -2z"/>
 <path d="M1261 856 c-7 -8 -8 -17 -3 -20 6 -3 15 1 21 8 7 8 8 17 3 20 -6 3 -15 -1 -21 -8z"/>
 <path d="M1095 851 c-7 -12 12 -24 25 -16 11 7 4 25 -10 25 -5 0 -11 -4 -15 -9z"/>
 <path d="M1155 840 c-3 -5 0 -13 9 -16 21 -8 61 -1 61 11 0 14 -62 19 -70 5z"/>
 <path d="M10 48 c0 -19 25 -41 40 -36 6 2 0 14 -14 27 -20 19 -26 21 -26 9z"/>
 <path d="M2521 36 c-19 -20 -21 -26 -9 -26 19 0 41 25 36 40 -2 6 -14 0 -27 -14z"/>
 </g>

<g fill="#aeb7bc" stroke="none">
 <path d="M1221 1839 c-16 -6 -21 -13 -14 -20 13 -13 67 7 58 21 -7 12 -12 12 -44 -1z"/>
 <path d="M1325 1840 c-8 -12 42 -33 57 -24 7 5 4 12 -7 21 -22 16 -41 17 -50 3z"/>
 <path d="M1141 1816 c-7 -8 -8 -17 -3 -20 6 -3 15 1 21 8 7 8 8 17 3 20 -6 3 -15 -1 -21 -8z"/>
 <path d="M1436 1822 c-3 -6 1 -15 8 -21 8 -7 17 -8 20 -3 3 6 -1 15 -8 21 -8 7 -17 8 -20 3z"/>
 <path d="M1061 1776 c-7 -8 -8 -17 -3 -20 6 -3 15 1 21 8 7 8 8 17 3 20 -6 3 -15 -1 -21 -8z"/>
 <path d="M1557 1753 c-6 -11 71 -84 77 -74 7 11 -29 58 -54 71 -10 6 -21 7 -23 3z"/>
 <path d="M1270 1635 c-14 -17 -14 -17 35 -17 51 0 52 1 31 17 -25 19 -50 19 -66 0z"/>
 <path d="M1376 1622 c-3 -6 1 -15 8 -21 8 -7 17 -8 20 -3 3 6 -1 15 -8 21 -8 7 -17 8 -20 3z"/>
 <path d="M1181 1596 c-7 -8 -8 -17 -3 -20 6 -3 15 1 21 8 7 8 8 17 3 20 -6 3 -15 -1 -21 -8z"/>
 <path d="M1016 942 c-3 -6 1 -15 9 -22 8 -7 13 -15 11 -19 -3 -4 4 -17 13 -30 11 -14 21 -19 24 -14 4 6 -2 22 -13 35 -11 14 -17 28 -14 30 2 3 -2 11 -10 17 -8 7 -17 8 -20 3z"/>
 <path d="M1298 880 c-29 -30 -27 -46 3 -29 22 11 42 46 32 52 -5 3 -20 -8 -35 -23z"/>
 <path d="M1115 841 c-7 -12 12 -24 25 -16 11 7 4 25 -10 25 -5 0 -11 -4 -15 -9z"/>
 <path d="M1231 836 c-7 -8 -8 -17 -3 -20 6 -3 15 1 21 8 7 8 8 17 3 20 -6 3 -15 -1 -21 -8z"/>
 <path d="M1577 314 c-3 -6 4 -23 17 -39 13 -15 25 -24 29 -19 3 6 -4 23 -17 39 -13 15 -25 24 -29 19z"/>
 <path d="M1676 281 c-10 -11 -13 -22 -8 -25 5 -3 17 3 26 13 10 11 13 22 8 25 -5 3 -17 -3 -26 -13z"/>
 </g>

<g fill="#acbec7" stroke="none">
 <path d="M1256 1843 c-4 -5 -12 -8 -17 -8 -5 0 -9 -3 -9 -7 0 -8 3 -9 18 -7 4 1 12 2 17 3 13 1 19 20 8 23 -5 2 -13 0 -17 -4z"/>
 <path d="M1211 1716 c-7 -8 -8 -17 -3 -20 6 -3 15 1 21 8 7 8 8 17 3 20 -6 3 -15 -1 -21 -8z"/>
 <path d="M1161 1576 c-7 -8 -8 -17 -3 -20 6 -3 15 1 21 8 7 8 8 17 3 20 -6 3 -15 -1 -21 -8z"/>
 <path d="M905 1560 c-4 -6 -3 -16 3 -22 6 -6 12 -6 17 2 4 6 3 16 -3 22 -6 6 -12 6 -17 -2z"/>
 <path d="M1465 1520 c-4 -6 -3 -16 3 -22 6 -6 12 -6 17 2 4 6 3 16 -3 22 -6 6 -12 6 -17 -2z"/>
 <path d="M1326 1512 c-3 -6 1 -15 8 -21 8 -7 17 -8 20 -3 3 6 -1 15 -8 21 -8 7 -17 8 -20 3z"/>
 <path d="M1115 1500 c-4 -6 -3 -16 3 -22 6 -6 12 -6 17 2 4 6 3 16 -3 22 -6 6 -12 6 -17 -2z"/>
 <path d="M1205 1080 c-4 -6 -13 -9 -20 -8 -8 2 -15 -1 -17 -6 -2 -5 7 -10 20 -11 25 -2 49 19 33 29 -5 4 -13 2 -16 -4z"/>
 <path d="M1321 896 c-7 -8 -8 -17 -3 -20 6 -3 15 1 21 8 7 8 8 17 3 20 -6 3 -15 -1 -21 -8z"/>
 <path d="M1076 862 c-3 -6 1 -15 8 -21 8 -7 17 -8 20 -3 3 6 -1 15 -8 21 -8 7 -17 8 -20 3z"/>
 <path d="M1115 721 c-3 -6 3 -15 14 -21 12 -6 22 -6 26 -1 3 6 -3 15 -14 21 -12 6 -22 6 -26 1z"/>
 <path d="M1225 717 c-12 -10 -14 -16 -7 -21 15 -9 54 12 47 25 -8 12 -18 11 -40 -4z"/>
 <path d="M1577 473 c-9 -17 -2 -163 8 -163 12 0 16 158 4 166 -4 2 -9 1 -12 -3z"/>
 </g>

<g fill="#3d6576" stroke="none">
 <path d="M1756 1971 c-4 -5 -2 -12 4 -16 5 -3 10 -3 10 1 0 3 6 1 14 -5 10 -8 16 -9 21 -1 3 5 4 11 1 11 -3 1 -9 2 -13 3 -5 1 -13 5 -20 9 -6 4 -14 3 -17 -2z"/>
 <path d="M1206 1861 c-9 -15 23 -36 36 -23 5 5 7 15 4 21 -9 13 -33 14 -40 2z"/>
 <path d="M1340 1856 c-10 -13 -9 -17 4 -22 22 -8 49 3 44 19 -7 18 -33 20 -48 3z"/>
 <path d="M1135 1840 c-11 -17 5 -32 21 -19 7 6 11 15 8 20 -7 12 -21 11 -29 -1z"/>
 <path d="M1435 1841 c-7 -12 12 -24 25 -16 11 7 4 25 -10 25 -5 0 -11 -4 -15 -9z"/>
 <path d="M1055 1800 c-11 -17 5 -32 21 -19 7 6 11 15 8 20 -7 12 -21 11 -29 -1z"/>
 <path d="M1556 1781 c-8 -13 31 -44 45 -35 7 4 10 3 5 -4 -3 -6 -2 -13 3 -16 5 -4 12 -2 15 3 8 13 -31 44 -45 35 -7 -4 -10 -3 -5 4 3 6 2 13 -3 16 -5 4 -12 2 -15 -3z"/>
 <path d="M1255 1660 c-12 -19 6 -30 43 -27 75 5 81 37 7 37 -24 0 -47 -4 -50 -10z"/>
 <path d="M1375 1641 c-7 -12 12 -24 25 -16 11 7 4 25 -10 25 -5 0 -11 -4 -15 -9z"/>
 <path d="M1175 1621 c-7 -12 12 -24 25 -16 11 7 4 25 -10 25 -5 0 -11 -4 -15 -9z"/>
 <path d="M1067 903 c-4 -6 1 -20 10 -32 11 -16 18 -20 26 -12 8 8 5 17 -10 32 -11 12 -23 17 -26 12z"/>
 <path d="M1286 891 c-15 -17 -13 -31 5 -31 13 0 30 38 20 44 -4 3 -16 -3 -25 -13z"/>
 <path d="M1116 861 c-3 -5 1 -14 8 -20 16 -13 32 2 21 19 -8 12 -22 13 -29 1z"/>
 <path d="M1225 860 c-8 -12 20 -24 35 -15 6 3 8 11 5 16 -8 12 -32 12 -40 -1z"/>
 </g>

<g fill="#3d5b69" stroke="none">
 <path d="M1166 2117 c-11 -8 -15 -17 -9 -20 13 -8 62 5 65 18 5 16 -35 17 -56 2z"/>
 <path d="M1355 2121 c-6 -11 1 -16 37 -25 33 -7 46 9 19 23 -24 13 -48 14 -56 2z"/>
 <path d="M1061 2096 c-7 -8 -8 -17 -3 -20 6 -3 15 1 21 8 7 8 8 17 3 20 -6 3 -15 -1 -21 -8z"/>
 <path d="M1475 2101 c-6 -11 29 -33 39 -24 7 7 -12 33 -25 33 -4 0 -10 -4 -14 -9z"/>
 <path d="M1555 2071 c-7 -12 12 -24 25 -16 11 7 4 25 -10 25 -5 0 -11 -4 -15 -9z"/>
 <path d="M940 2055 c-6 -7 -17 -12 -25 -9 -16 7 -29 -12 -15 -21 6 -4 17 -2 24 4 7 6 15 9 18 6 3 -3 11 1 17 9 7 8 8 17 3 20 -6 3 -15 -1 -22 -9z"/>
 <path d="M855 2021 c-7 -12 12 -24 25 -16 11 7 4 25 -10 25 -5 0 -11 -4 -15 -9z"/>
 <path d="M1696 2011 c-4 -5 -2 -12 4 -16 5 -3 10 -3 10 1 0 3 6 1 14 -5 10 -8 16 -9 21 -1 3 5 4 11 1 11 -3 1 -9 2 -13 3 -5 1 -13 5 -20 9 -6 4 -14 3 -17 -2z"/>
 <path d="M1756 1982 c-3 -6 1 -15 8 -21 8 -7 17 -8 20 -3 3 6 -1 15 -8 21 -8 7 -17 8 -20 3z"/>
 <path d="M765 1950 c-4 -6 -10 -8 -15 -5 -5 3 -11 1 -14 -4 -4 -5 -2 -12 3 -15 5 -4 12 -2 16 4 4 6 10 8 15 5 5 -3 11 -1 14 4 4 5 2 12 -3 15 -5 4 -12 2 -16 -4z"/>
 <path d="M1838 1913 c-6 -12 111 -123 117 -112 3 4 -13 29 -36 54 -45 49 -75 70 -81 58z"/>
 <path d="M1235 1860 c-4 -7 -3 -15 1 -19 12 -11 115 2 114 14 0 14 -107 19 -115 5z"/>
 <path d="M1415 1841 c-7 -12 12 -24 25 -16 11 7 4 25 -10 25 -5 0 -11 -4 -15 -9z"/>
 <path d="M1475 1821 c-7 -12 12 -24 25 -16 11 7 4 25 -10 25 -5 0 -11 -4 -15 -9z"/>
 <path d="M599 1806 c-1 -3 -2 -9 -3 -13 -1 -5 -5 -13 -9 -20 -4 -6 -3 -14 3 -18 5 -3 11 -4 11 -1 1 3 2 9 3 14 1 4 5 12 9 19 4 6 3 14 -3 18 -5 3 -11 4 -11 1z"/>
 <path d="M1985 1760 c-4 -6 -3 -16 3 -22 6 -6 12 -6 17 2 4 6 3 16 -3 22 -6 6 -12 6 -17 -2z"/>
 <path d="M2016 1702 c-3 -6 1 -15 8 -21 8 -7 17 -8 20 -3 3 6 -1 15 -8 21 -8 7 -17 8 -20 3z"/>
 <path d="M521 1676 c-7 -8 -8 -17 -3 -20 6 -3 15 1 21 8 7 8 8 17 3 20 -6 3 -15 -1 -21 -8z"/>
 <path d="M2037 1664 c-4 -4 0 -16 10 -26 9 -10 13 -18 8 -18 -4 0 -2 -7 5 -15 7 -8 16 -12 22 -9 5 3 4 12 -4 21 -7 9 -13 23 -13 31 0 17 -17 26 -28 16z"/>
 <path d="M495 1639 c-4 -6 -4 -13 -1 -16 3 -3 1 -12 -5 -19 -6 -7 -8 -18 -4 -24 9 -14 28 -1 21 15 -3 8 2 19 9 25 8 7 12 16 9 21 -7 12 -21 11 -29 -2z"/>
 <path d="M1215 1641 c-7 -12 12 -24 25 -16 11 7 4 25 -10 25 -5 0 -11 -4 -15 -9z"/>
 <path d="M455 1540 c-11 -17 5 -32 21 -19 7 6 11 15 8 20 -7 12 -21 11 -29 -1z"/>
 <path d="M2095 1521 c-4 -8 -1 -19 8 -28 19 -20 30 -1 13 22 -10 14 -15 15 -21 6z"/>
 <path d="M440 1470 c-8 -15 -9 -25 -2 -32 7 -7 14 -3 22 12 8 15 9 25 2 32 -7 7 -14 3 -22 -12z"/>
 <path d="M2115 1431 c-8 -14 13 -53 26 -46 13 9 11 31 -5 44 -10 8 -16 9 -21 2z"/>
 <path d="M421 1351 c-20 -37 -9 -173 14 -172 11 1 14 180 3 187 -4 3 -12 -4 -17 -15z"/>
 <path d="M2120 1150 c-8 -15 -9 -25 -2 -32 7 -7 14 -3 22 12 8 15 9 25 2 32 -7 7 -14 3 -22 -12z"/>
 <path d="M435 1100 c-10 -17 12 -37 25 -24 8 8 6 15 -4 23 -10 9 -16 9 -21 1z"/>
 <path d="M2095 1060 c-11 -17 5 -32 21 -19 7 6 11 15 8 20 -7 12 -21 11 -29 -1z"/>
 <path d="M456 1032 c-3 -6 1 -15 8 -21 8 -7 17 -8 20 -3 3 6 -1 15 -8 21 -8 7 -17 8 -20 3z"/>
 <path d="M2075 1000 c-11 -17 5 -32 21 -19 7 6 11 15 8 20 -7 12 -21 11 -29 -1z"/>
 <path d="M475 980 c-4 -6 -3 -16 3 -22 6 -6 12 -6 17 2 4 6 3 16 -3 22 -6 6 -12 6 -17 -2z"/>
 <path d="M535 860 c-10 -17 12 -37 25 -24 8 8 6 15 -4 23 -10 9 -16 9 -21 1z"/>
 <path d="M1995 840 c-11 -17 5 -32 21 -19 7 6 11 15 8 20 -7 12 -21 11 -29 -1z"/>
 <path d="M568 824 c-8 -12 9 -54 21 -54 19 0 19 16 2 39 -10 13 -21 20 -23 15z"/>
 <path d="M1932 744 c-18 -24 -52 -59 -77 -76 -46 -32 -52 -42 -36 -53 12 -7 120 93 144 133 28 49 3 46 -31 -4z"/>
 <path d="M646 722 c-3 -5 8 -21 23 -36 16 -15 31 -23 35 -18 3 5 -8 21 -23 36 -16 15 -31 23 -35 18z"/>
 <path d="M755 620 c-9 -14 1 -27 25 -33 30 -8 33 9 5 27 -15 10 -26 12 -30 6z"/>
 <path d="M1765 590 c-4 -6 -10 -8 -15 -5 -5 3 -11 1 -14 -4 -4 -5 -2 -12 3 -15 5 -4 12 -2 16 4 4 6 10 8 15 5 5 -3 11 -1 14 4 4 5 2 12 -3 15 -5 4 -12 2 -16 -4z"/>
 <path d="M815 571 c-7 -12 12 -24 25 -16 11 7 4 25 -10 25 -5 0 -11 -4 -15 -9z"/>
 <path d="M976 501 c-3 -5 1 -14 8 -20 16 -13 32 2 21 19 -8 12 -22 13 -29 1z"/>
 <path d="M1035 481 c-6 -11 29 -33 39 -24 7 7 -12 33 -25 33 -4 0 -10 -4 -14 -9z"/>
 <path d="M1505 476 c-14 -10 -15 -15 -6 -21 8 -4 19 -1 28 8 20 19 1 30 -22 13z"/>
 <path d="M1115 460 c-9 -14 40 -34 62 -26 17 7 17 8 -1 22 -23 16 -52 18 -61 4z"/>
 <path d="M1405 457 c-12 -10 -14 -16 -7 -21 15 -9 54 12 47 25 -8 12 -18 11 -40 -4z"/>
 <path d="M1681 276 c-7 -8 -8 -17 -3 -20 6 -3 15 1 21 8 7 8 8 17 3 20 -6 3 -15 -1 -21 -8z"/>
 </g>

<g fill="#181f23" stroke="none">
 <path d="M1091 2126 c-23 -25 -16 -41 13 -30 29 11 42 54 16 54 -4 0 -17 -11 -29 -24z"/>
 <path d="M1434 2139 c-4 -7 2 -20 15 -31 29 -23 47 -13 28 15 -17 26 -33 32 -43 16z"/>
 <path d="M1215 2130 c-4 -6 0 -12 7 -15 23 -8 118 0 118 10 0 13 -117 18 -125 5z"/>
 <path d="M1021 2117 c-9 -11 -8 -17 4 -27 12 -10 16 -9 21 5 9 23 -10 40 -25 22z"/>
 <path d="M1514 2119 c-8 -14 31 -54 45 -45 7 5 6 15 -5 32 -18 26 -29 30 -40 13z"/>
 <path d="M1576 2101 c-3 -5 2 -19 12 -32 21 -26 34 -15 21 19 -9 23 -24 29 -33 13z"/>
 <path d="M965 2090 c-4 -6 -3 -16 3 -22 6 -6 12 -6 17 2 4 6 3 16 -3 22 -6 6 -12 6 -17 -2z"/>
 <path d="M913 2074 c-9 -23 11 -38 26 -20 13 16 7 36 -10 36 -5 0 -12 -7 -16 -16z"/>
 <path d="M1638 2074 c-10 -9 11 -46 21 -39 5 2 14 -2 21 -10 17 -21 32 -8 20 16 -6 11 -16 17 -21 13 -6 -3 -16 1 -22 11 -7 9 -16 13 -19 9z"/>
 <path d="M875 2060 c-4 -6 -3 -16 3 -22 6 -6 12 -6 17 2 4 6 3 16 -3 22 -6 6 -12 6 -17 -2z"/>
 <path d="M833 2034 c-9 -23 11 -38 26 -20 13 16 7 36 -10 36 -5 0 -12 -7 -16 -16z"/>
 <path d="M1726 2017 c-21 -15 -10 -27 20 -23 20 3 26 27 9 33 -6 2 -19 -3 -29 -10z"/>
 <path d="M775 2000 c-9 -14 2 -29 20 -26 25 4 28 14 6 25 -13 7 -22 8 -26 1z"/>
 <path d="M1791 1976 c-10 -12 -9 -16 6 -23 16 -8 25 -9 50 -4 8 1 -28 41 -37 41 -4 0 -13 -6 -19 -14z"/>
 <path d="M692 1930 c-40 -28 -82 -79 -82 -98 0 -6 -14 -22 -31 -35 -19 -15 -29 -29 -24 -36 10 -18 17 -12 74 57 29 35 70 76 92 92 22 16 41 32 42 36 5 19 -36 9 -71 -16z"/>
 <path d="M1857 1913 c-3 -4 33 -48 78 -96 51 -53 86 -83 90 -77 4 6 -2 22 -14 34 -12 12 -21 27 -21 34 0 6 -10 16 -21 23 -12 6 -41 29 -65 51 -23 21 -44 35 -47 31z"/>
 <path d="M525 1730 c-12 -14 -15 -24 -9 -30 7 -7 17 -4 29 10 12 14 15 24 9 30 -7 7 -17 4 -29 -10z"/>
 <path d="M2025 1730 c-4 -6 -3 -16 3 -22 6 -6 12 -6 17 2 4 6 3 16 -3 22 -6 6 -12 6 -17 -2z"/>
 <path d="M2045 1700 c-4 -6 -3 -16 3 -22 6 -6 12 -6 17 2 4 6 3 16 -3 22 -6 6 -12 6 -17 -2z"/>
 <path d="M495 1680 c-4 -6 -3 -16 3 -22 6 -6 12 -6 17 2 4 6 3 16 -3 22 -6 6 -12 6 -17 -2z"/>
 <path d="M2065 1660 c-4 -6 -3 -16 3 -22 6 -6 12 -6 17 2 4 6 3 16 -3 22 -6 6 -12 6 -17 -2z"/>
 </g>

<g fill="#354953" stroke="none">
 <path d="M1145 2117 c-12 -10 -14 -16 -7 -21 15 -9 54 12 47 25 -8 12 -18 11 -40 -4z"/>
 <path d="M1395 2121 c-6 -11 29 -33 39 -24 7 7 -12 33 -25 33 -4 0 -10 -4 -14 -9z"/>
 <path d="M1051 2096 c-7 -8 -8 -17 -3 -20 6 -3 15 1 21 8 7 8 8 17 3 20 -6 3 -15 -1 -21 -8z"/>
 <path d="M1496 2102 c-3 -6 1 -15 8 -21 8 -7 17 -8 20 -3 3 6 -1 15 -8 21 -8 7 -17 8 -20 3z"/>
 <path d="M1555 2081 c-7 -12 12 -24 25 -16 11 7 4 25 -10 25 -5 0 -11 -4 -15 -9z"/>
 <path d="M1615 2051 c-7 -12 12 -24 24 -17 5 3 14 -1 21 -9 7 -8 16 -12 22 -9 5 3 4 12 -3 20 -6 7 -15 12 -19 9 -5 -3 -11 -1 -15 5 -8 13 -22 13 -30 1z"/>
 <path d="M821 1996 c-7 -8 -8 -17 -3 -20 6 -3 15 1 21 8 7 8 8 17 3 20 -6 3 -15 -1 -21 -8z"/>
 <path d="M761 1956 c-7 -8 -8 -17 -3 -20 6 -3 15 1 21 8 7 8 8 17 3 20 -6 3 -15 -1 -21 -8z"/>
 <path d="M1816 1931 c-4 -5 10 -19 29 -31 19 -12 52 -42 74 -67 21 -25 41 -41 45 -35 8 13 -72 101 -112 125 -17 10 -33 13 -36 8z"/>
 <path d="M581 1776 c-7 -8 -8 -17 -3 -20 6 -3 15 1 21 8 7 8 8 17 3 20 -6 3 -15 -1 -21 -8z"/>
 <path d="M541 1716 c-7 -8 -8 -17 -3 -20 6 -3 15 1 21 8 7 8 8 17 3 20 -6 3 -15 -1 -21 -8z"/>
 <path d="M475 1600 c-4 -6 -4 -14 -1 -17 3 -3 1 -12 -5 -19 -6 -7 -8 -18 -4 -24 9 -14 28 -1 21 15 -2 7 1 18 7 24 8 8 8 14 0 22 -8 8 -13 8 -18 -1z"/>
 <path d="M2076 1582 c-3 -6 1 -15 8 -21 8 -7 17 -8 20 -3 3 6 -1 15 -8 21 -8 7 -17 8 -20 3z"/>
 <path d="M2105 1520 c-4 -6 -3 -16 3 -22 6 -6 12 -6 17 2 4 6 3 16 -3 22 -6 6 -12 6 -17 -2z"/>
 <path d="M440 1484 c-9 -10 -10 -18 -3 -25 8 -8 14 -5 22 9 13 25 -2 38 -19 16z"/>
 <path d="M2115 1451 c-4 -8 -1 -19 8 -28 19 -20 30 -1 13 22 -10 14 -15 15 -21 6z"/>
 <path d="M420 1384 c-6 -15 -8 -35 -5 -43 6 -14 8 -13 21 3 16 23 18 52 4 61 -6 3 -15 -6 -20 -21z"/>
 <path d="M414 1217 c-7 -20 9 -73 22 -69 11 4 7 63 -6 76 -6 6 -12 3 -16 -7z"/>
 <path d="M2120 1130 c-8 -15 -9 -25 -2 -32 7 -7 14 -3 22 12 8 15 9 25 2 32 -7 7 -14 3 -22 -12z"/>
 <path d="M445 1080 c-4 -6 -3 -16 3 -22 6 -6 12 -6 17 2 4 6 3 16 -3 22 -6 6 -12 6 -17 -2z"/>
 <path d="M2100 1044 c-9 -10 -10 -18 -3 -25 8 -8 14 -5 22 9 13 25 -2 38 -19 16z"/>
 <path d="M455 1020 c-10 -17 12 -37 25 -24 8 8 6 15 -4 23 -10 9 -16 9 -21 1z"/>
 <path d="M2081 986 c-7 -8 -8 -17 -3 -20 6 -3 15 1 21 8 7 8 8 17 3 20 -6 3 -15 -1 -21 -8z"/>
 <path d="M485 960 c-4 -6 -3 -16 3 -22 6 -6 12 -6 17 2 4 6 3 16 -3 22 -6 6 -12 6 -17 -2z"/>
 <path d="M2055 940 c-4 -6 -3 -16 3 -22 6 -6 12 -6 17 2 4 6 3 16 -3 22 -6 6 -12 6 -17 -2z"/>
 <path d="M505 920 c-4 -6 -3 -16 3 -22 6 -6 12 -6 17 2 4 6 3 16 -3 22 -6 6 -12 6 -17 -2z"/>
 <path d="M2035 900 c-4 -6 -3 -16 3 -22 6 -6 12 -6 17 2 4 6 3 16 -3 22 -6 6 -12 6 -17 -2z"/>
 <path d="M525 880 c-4 -6 -3 -16 3 -22 6 -6 12 -6 17 2 4 6 3 16 -3 22 -6 6 -12 6 -17 -2z"/>
 <path d="M2019 866 c-1 -3 -2 -9 -3 -13 -1 -5 -5 -13 -9 -20 -4 -6 -3 -14 3 -18 5 -3 11 -4 11 -1 1 3 2 9 3 14 1 4 5 12 9 19 4 6 3 14 -3 18 -5 3 -11 4 -11 1z"/>
 <path d="M556 822 c-3 -6 1 -15 8 -21 8 -7 17 -8 20 -3 3 6 -1 15 -8 21 -8 7 -17 8 -20 3z"/>
 <path d="M1962 778 c-23 -35 -18 -63 5 -32 26 34 33 53 24 58 -5 3 -18 -8 -29 -26z"/>
 <path d="M606 762 c-8 -14 95 -124 110 -118 8 3 13 2 11 -2 -1 -4 1 -8 6 -9 15 -6 0 14 -60 74 -34 35 -64 59 -67 55z"/>
 <path d="M1813 629 c-13 -5 -23 -13 -23 -18 0 -19 16 -19 39 -2 27 21 17 33 -16 20z"/>
 <path d="M776 602 c-3 -6 1 -15 8 -21 8 -7 17 -8 20 -3 3 6 -1 15 -8 21 -8 7 -17 8 -20 3z"/>
 <path d="M1741 576 c-7 -8 -8 -17 -3 -20 6 -3 15 1 21 8 7 8 8 17 3 20 -6 3 -15 -1 -21 -8z"/>
 <path d="M835 561 c-7 -12 12 -24 25 -16 11 7 4 25 -10 25 -5 0 -11 -4 -15 -9z"/>
 <path d="M876 542 c-3 -5 1 -15 9 -22 8 -7 15 -9 15 -5 0 5 9 0 19 -9 12 -11 21 -14 26 -7 8 15 -4 33 -18 28 -7 -2 -19 2 -29 10 -9 8 -18 10 -22 5z"/>
 <path d="M966 502 c-3 -6 1 -15 8 -21 8 -7 17 -8 20 -3 3 6 -1 15 -8 21 -8 7 -17 8 -20 3z"/>
 <path d="M1026 481 c-9 -15 23 -36 35 -24 8 8 5 14 -9 22 -12 6 -23 7 -26 2z"/>
 <path d="M1521 476 c-7 -8 -8 -17 -3 -20 6 -3 15 1 21 8 7 8 8 17 3 20 -6 3 -15 -1 -21 -8z"/>
 <path d="M1095 461 c-7 -13 32 -34 47 -25 7 5 5 11 -7 21 -22 15 -32 16 -40 4z"/>
 <path d="M1425 457 c-12 -10 -14 -16 -7 -21 15 -9 54 12 47 25 -8 12 -18 11 -40 -4z"/>
 <path d="M1700 301 c-6 -12 -6 -22 -1 -26 6 -3 15 3 21 14 6 12 6 22 1 26 -6 3 -15 -3 -21 -14z"/>
 </g>

<g fill="#b4c8d1" stroke="none">
 <path d="M1275 1840 c-8 -12 20 -24 39 -17 7 3 18 1 24 -5 12 -12 35 -1 26 13 -3 6 -12 8 -20 5 -7 -3 -16 -1 -19 4 -8 13 -42 13 -50 0z"/>
 <path d="M1576 1732 c-3 -5 3 -17 13 -26 11 -10 22 -13 25 -8 3 5 -3 17 -13 26 -11 10 -22 13 -25 8z"/>
 <path d="M1366 1721 c-9 -15 23 -36 35 -24 8 8 5 14 -9 22 -12 6 -23 7 -26 2z"/>
 <path d="M1496 1652 c-3 -5 3 -17 13 -26 11 -10 22 -13 25 -8 3 5 -3 17 -13 26 -11 10 -22 13 -25 8z"/>
 <path d="M1275 1630 c-8 -13 20 -24 41 -16 8 3 12 10 9 16 -8 13 -42 13 -50 0z"/>
 <path d="M1045 1600 c-4 -6 -3 -16 3 -22 6 -6 12 -6 17 2 4 6 3 16 -3 22 -6 6 -12 6 -17 -2z"/>
 <path d="M1675 1580 c-4 -6 -3 -16 3 -22 6 -6 12 -6 17 2 4 6 3 16 -3 22 -6 6 -12 6 -17 -2z"/>
 <path d="M1436 1562 c-3 -6 1 -15 9 -22 8 -7 13 -16 10 -20 -3 -5 -1 -11 4 -14 5 -4 12 -2 15 3 4 5 2 12 -4 16 -6 4 -8 10 -5 15 3 4 -2 13 -9 19 -8 7 -17 8 -20 3z"/>
 <path d="M895 1540 c-4 -6 -3 -16 3 -22 6 -6 12 -6 17 2 4 6 3 16 -3 22 -6 6 -12 6 -17 -2z"/>
 <path d="M1015 1540 c-4 -6 -3 -16 3 -22 6 -6 12 -6 17 2 4 6 3 16 -3 22 -6 6 -12 6 -17 -2z"/>
 <path d="M1315 1521 c-7 -12 12 -24 25 -16 5 3 7 0 4 -8 -6 -18 12 -32 21 -17 4 6 -1 20 -11 31 -19 21 -30 24 -39 10z"/>
 <path d="M1251 1496 c-21 -22 -21 -30 -19 -199 4 -239 22 -241 26 -3 2 145 5 183 18 197 24 26 0 31 -25 5z"/>
 <path d="M1121 1492 c-7 -13 -11 -89 -11 -194 0 -138 3 -178 15 -194 8 -10 15 -16 15 -11 3 38 0 410 -4 414 -2 3 -9 -4 -15 -15z"/>
 <path d="M1226 1092 c-3 -6 -20 -9 -37 -8 -37 3 -47 -9 -18 -24 17 -9 25 -8 41 7 11 10 22 17 24 16 6 -4 7 8 1 13 -3 3 -8 1 -11 -4z"/>
 <path d="M895 941 c-4 -8 -1 -19 8 -28 19 -20 30 -1 13 22 -10 14 -15 15 -21 6z"/>
 <path d="M1461 932 c-13 -25 2 -38 19 -16 9 10 10 18 3 25 -8 8 -14 5 -22 -9z"/>
 <path d="M1295 866 c-11 -8 -14 -16 -8 -19 6 -4 18 0 28 7 11 8 14 16 8 19 -6 4 -18 0 -28 -7z"/>
 <path d="M937 844 c-3 -5 3 -20 12 -33 11 -14 21 -19 25 -13 3 5 -2 20 -12 33 -11 12 -21 18 -25 13z"/>
 <path d="M1397 805 c-40 -47 -36 -72 4 -27 41 45 50 60 41 66 -5 3 -25 -15 -45 -39z"/>
 <path d="M996 771 c-4 -5 -2 -12 4 -16 5 -3 10 -3 10 1 0 3 6 1 14 -5 10 -8 16 -9 21 -1 3 5 4 11 1 11 -3 1 -9 2 -13 3 -5 1 -13 5 -20 9 -6 4 -14 3 -17 -2z"/>
 <path d="M1055 741 c-7 -12 12 -24 25 -16 11 7 4 25 -10 25 -5 0 -11 -4 -15 -9z"/>
 <path d="M1124 718 c-7 -11 32 -28 63 -28 24 0 80 27 63 30 -27 5 -123 3 -126 -2z"/>
 <path d="M1577 493 c-8 -14 -2 -53 8 -56 12 -3 17 51 5 58 -5 3 -11 2 -13 -2z"/>
 </g>

<g fill="#12171a" stroke="none">
 <path d="M1122 2138 c-7 -7 -28 -11 -46 -10 -19 2 -37 -1 -41 -7 -3 -6 -14 -11 -24 -11 -23 0 -81 -29 -81 -40 0 -15 21 -23 33 -11 6 6 21 11 33 11 13 0 26 5 29 10 3 6 15 10 26 10 11 0 30 5 42 12 14 8 79 12 187 12 140 1 165 3 165 16 0 13 -25 15 -155 18 -114 2 -159 -1 -168 -10z"/>
 <path d="M1455 2121 c-8 -14 39 -35 60 -27 9 3 15 12 13 19 -6 15 -64 22 -73 8z"/>
 <path d="M1535 2100 c-3 -5 7 -15 22 -21 15 -7 47 -20 70 -30 24 -11 45 -19 49 -19 3 0 30 -16 60 -36 55 -37 90 -39 58 -3 -9 10 -23 19 -29 19 -7 0 -18 7 -25 15 -15 18 -109 65 -131 65 -10 0 -21 5 -24 10 -8 13 -42 13 -50 0z"/>
 <path d="M870 2050 c-18 -13 -22 -22 -14 -30 13 -13 77 16 71 33 -6 19 -30 18 -57 -3z"/>
 <path d="M780 1996 c-53 -39 -74 -62 -62 -70 11 -6 127 72 127 86 0 22 -21 17 -65 -16z"/>
 <path d="M1815 1959 c-10 -14 137 -150 150 -138 6 6 -10 28 -40 60 -66 67 -102 92 -110 78z"/>
 <path d="M586 1811 c-10 -11 -13 -22 -8 -25 5 -3 17 3 26 13 10 11 13 22 8 25 -5 3 -17 -3 -26 -13z"/>
 </g>

<g fill="#8dacbc" stroke="none">
 <path d="M1221 1716 c-8 -10 -9 -16 -2 -21 14 -8 53 13 46 26 -9 13 -31 11 -44 -5z"/>
 <path d="M1315 1721 c-6 -11 1 -16 37 -25 33 -7 46 9 19 23 -24 13 -48 14 -56 2z"/>
 <path d="M1161 1696 c-7 -8 -8 -17 -3 -20 6 -3 15 1 21 8 7 8 8 17 3 20 -6 3 -15 -1 -21 -8z"/>
 <path d="M1415 1701 c-9 -15 4 -33 20 -27 8 3 19 -2 25 -9 7 -8 16 -12 22 -9 5 3 4 12 -3 20 -6 8 -14 12 -17 9 -3 -3 -13 2 -23 11 -11 10 -19 12 -24 5z"/>
 <path d="M1616 1702 c-3 -6 1 -15 8 -21 8 -7 17 -8 20 -3 3 6 -1 15 -8 21 -8 7 -17 8 -20 3z"/>
 <path d="M1090 1650 c-23 -23 -38 -46 -34 -52 5 -7 16 0 33 19 14 17 34 33 44 36 19 7 23 22 7 32 -5 3 -28 -13 -50 -35z"/>
 <path d="M941 1656 c-7 -8 -8 -17 -3 -20 6 -3 15 1 21 8 7 8 8 17 3 20 -6 3 -15 -1 -21 -8z"/>
 <path d="M1656 1642 c-3 -5 1 -15 9 -22 8 -7 12 -16 9 -22 -7 -12 16 -39 27 -32 5 3 4 15 -3 27 -7 12 -12 25 -13 29 0 14 -23 30 -29 20z"/>
 <path d="M1536 1602 c-3 -5 1 -15 9 -22 8 -7 12 -16 9 -21 -9 -15 17 -52 28 -41 7 7 5 18 -3 33 -7 13 -13 27 -14 31 0 14 -23 30 -29 20z"/>
 <path d="M900 1564 c-9 -10 -10 -18 -3 -25 8 -8 14 -5 22 9 13 25 -2 38 -19 16z"/>
 <path d="M1022 1528 c-9 -9 -12 -91 -12 -299 0 -242 2 -288 15 -299 8 -7 15 -11 15 -9 2 86 0 612 -3 615 -2 2 -9 -2 -15 -8z"/>
 <path d="M1125 1520 c-4 -6 -3 -16 3 -22 6 -6 12 -6 17 2 4 6 3 16 -3 22 -6 6 -12 6 -17 -2z"/>
 <path d="M1281 1516 c-13 -16 2 -32 19 -21 6 4 18 1 26 -6 12 -10 14 -55 14 -283 0 -149 0 -275 0 -280 0 -5 7 -3 15 4 13 10 15 54 15 279 l0 267 -28 27 c-32 31 -44 33 -61 13z"/>
 <path d="M1695 1509 c-10 -26 -1 -949 10 -952 14 -3 19 943 5 957 -6 6 -11 4 -15 -5z"/>
 <path d="M1247 1482 c-4 -5 -7 -94 -7 -198 -1 -152 1 -189 12 -189 10 0 14 39 16 189 2 170 -4 227 -21 198z"/>
 <path d="M1115 1120 c-4 -6 -3 -16 3 -22 6 -6 12 -6 17 2 4 6 3 16 -3 22 -6 6 -12 6 -17 -2z"/>
 <path d="M895 921 c-4 -8 -1 -19 8 -28 19 -20 30 -1 13 22 -10 14 -15 15 -21 6z"/>
 <path d="M1461 912 c-13 -25 2 -38 19 -16 9 10 10 18 3 25 -8 8 -14 5 -22 -9z"/>
 <path d="M925 860 c-8 -13 13 -52 25 -45 9 6 2 43 -11 50 -4 3 -10 1 -14 -5z"/>
 <path d="M1434 854 c-4 -10 -9 -22 -11 -26 -2 -4 1 -9 6 -13 15 -9 35 35 22 48 -7 7 -12 5 -17 -9z"/>
 <path d="M1341 756 c-9 -10 -9 -16 -1 -21 17 -10 37 12 24 25 -8 8 -15 6 -23 -4z"/>
 <path d="M1015 751 c-7 -12 12 -24 25 -16 11 7 4 25 -10 25 -5 0 -11 -4 -15 -9z"/>
 <path d="M1295 730 c-3 -6 -10 -8 -15 -5 -15 10 -54 -15 -42 -27 7 -7 18 -6 33 3 13 7 29 13 34 14 14 0 19 19 7 23 -6 2 -13 -2 -17 -8z"/>
 <path d="M1095 721 c-7 -13 32 -34 47 -25 7 5 5 11 -7 21 -22 15 -32 16 -40 4z"/>
 </g>

<g fill="#4b6977" stroke="none">
 <path d="M1216 2121 c-4 -6 -13 -8 -20 -5 -17 6 -31 -12 -16 -21 5 -3 16 -3 23 2 6 4 17 8 22 8 14 0 19 19 7 23 -6 2 -13 -1 -16 -7z"/>
 <path d="M1316 2122 c-8 -13 0 -18 46 -26 33 -6 60 5 41 17 -19 12 -81 18 -87 9z"/>
 <path d="M1075 2101 c-7 -12 12 -24 25 -16 11 7 4 25 -10 25 -5 0 -11 -4 -15 -9z"/>
 <path d="M731 1931 c-14 -11 -19 -21 -13 -25 5 -3 20 2 33 12 29 24 11 36 -20 13z"/>
 <path d="M1856 1892 c-3 -5 8 -21 23 -36 16 -15 31 -23 35 -18 3 5 -8 21 -23 36 -16 15 -31 23 -35 18z"/>
 <path d="M1195 1860 c-10 -17 12 -37 25 -24 8 8 6 15 -4 23 -10 9 -16 9 -21 1z"/>
 <path d="M1374 1858 c-15 -23 68 -60 88 -40 8 8 6 13 -8 17 -10 3 -31 12 -46 20 -19 10 -30 11 -34 3z"/>
 <path d="M1255 1850 c-3 -5 0 -13 8 -16 23 -8 82 0 82 11 0 14 -82 19 -90 5z"/>
 <path d="M1154 1836 c-18 -14 -18 -15 -1 -22 22 -8 46 11 31 26 -7 7 -17 5 -30 -4z"/>
 <path d="M1095 1811 c-7 -12 12 -24 25 -16 11 7 4 25 -10 25 -5 0 -11 -4 -15 -9z"/>
 <path d="M1475 1810 c-8 -12 20 -24 35 -15 6 3 8 11 5 16 -8 12 -32 12 -40 -1z"/>
 <path d="M1053 1789 c-13 -5 -23 -13 -23 -18 0 -19 16 -19 39 -2 27 21 17 33 -16 20z"/>
 <path d="M1515 1791 c-3 -6 2 -14 12 -18 10 -3 39 -24 65 -45 58 -48 75 -33 21 19 -21 20 -42 38 -48 39 -5 1 -17 5 -26 9 -10 3 -20 2 -24 -4z"/>
 <path d="M1345 1661 c-4 -3 -15 -6 -26 -6 -27 0 -23 -20 4 -20 13 -1 40 -10 59 -22 33 -20 48 -20 48 -3 0 11 -78 58 -85 51z"/>
 <path d="M1205 1640 c-8 -13 3 -30 20 -30 23 0 27 18 6 30 -13 7 -22 7 -26 0z"/>
 <path d="M1165 1607 c-28 -21 -9 -40 20 -21 14 9 22 20 19 25 -7 12 -17 11 -39 -4z"/>
 <path d="M440 1451 c-6 -12 -6 -22 -1 -26 6 -3 15 3 21 14 6 12 6 22 1 26 -6 3 -15 -3 -21 -14z"/>
 <path d="M2118 1415 c-9 -9 7 -60 18 -58 5 1 10 8 12 15 3 16 -21 52 -30 43z"/>
 <path d="M425 1318 c-9 -23 -2 -83 10 -83 14 0 19 75 6 88 -7 7 -12 5 -16 -5z"/>
 <path d="M2120 1170 c-8 -15 -9 -25 -2 -32 7 -7 14 -3 22 12 8 15 9 25 2 32 -7 7 -14 3 -22 -12z"/>
 <path d="M435 1121 c-4 -8 -1 -19 8 -28 19 -20 30 -1 13 22 -10 14 -15 15 -21 6z"/>
 <path d="M2105 1080 c-4 -6 -3 -16 3 -22 6 -6 12 -6 17 2 4 6 3 16 -3 22 -6 6 -12 6 -17 -2z"/>
 <path d="M456 1042 c-3 -6 1 -15 8 -21 8 -7 17 -8 20 -3 3 6 -1 15 -8 21 -8 7 -17 8 -20 3z"/>
 <path d="M485 980 c-4 -6 -1 -17 5 -25 7 -8 9 -15 5 -15 -5 0 0 -9 10 -20 10 -11 15 -20 10 -20 -4 0 -2 -7 5 -15 7 -8 17 -12 22 -9 5 3 3 13 -6 23 -9 10 -14 20 -11 23 3 3 -1 11 -9 17 -8 7 -13 18 -10 26 7 16 -12 29 -21 15z"/>
 <path d="M2060 955 c-7 -8 -9 -15 -5 -15 5 0 0 -9 -10 -20 -10 -11 -14 -20 -10 -20 4 0 0 -9 -9 -19 -10 -11 -13 -22 -8 -25 5 -3 15 1 22 9 7 8 9 15 5 15 -5 0 0 9 10 20 10 11 14 20 10 20 -4 0 0 9 9 19 10 11 13 22 8 25 -5 3 -15 -1 -22 -9z"/>
 <path d="M1056 901 c-14 -21 30 -58 79 -67 26 -5 42 10 23 22 -7 4 -23 9 -35 10 -13 2 -32 13 -42 25 -13 16 -20 19 -25 10z"/>
 <path d="M1292 888 c-12 -12 -34 -23 -49 -24 -30 -1 -43 -21 -19 -30 18 -7 77 18 96 41 22 27 -3 38 -28 13z"/>
 <path d="M1985 820 c-4 -6 -3 -16 3 -22 6 -6 12 -6 17 2 4 6 3 16 -3 22 -6 6 -12 6 -17 -2z"/>
 <path d="M586 801 c-4 -5 -2 -12 4 -16 6 -4 8 -10 5 -15 -3 -5 -1 -11 4 -14 5 -4 12 -2 15 3 4 5 2 12 -4 16 -6 4 -8 10 -5 15 3 5 1 11 -4 14 -5 4 -12 2 -15 -3z"/>
 <path d="M1888 708 c-31 -32 -52 -60 -47 -63 9 -6 95 68 110 96 20 37 -8 23 -63 -33z"/>
 <path d="M736 631 c-4 -5 -2 -12 4 -16 5 -3 10 -3 10 1 0 3 6 1 14 -5 10 -8 16 -9 21 -1 3 5 4 11 1 11 -3 1 -9 2 -13 3 -5 1 -13 5 -20 9 -6 4 -14 3 -17 -2z"/>
 <path d="M1761 596 c-7 -8 -8 -17 -3 -20 6 -3 15 1 21 8 7 8 8 17 3 20 -6 3 -15 -1 -21 -8z"/>
 <path d="M1714 565 c-14 -10 -16 -17 -8 -25 7 -7 15 -5 28 9 21 23 6 36 -20 16z"/>
 <path d="M936 522 c-3 -6 1 -15 8 -21 8 -7 17 -8 20 -3 3 6 -1 15 -8 21 -8 7 -17 8 -20 3z"/>
 <path d="M1556 502 c-3 -6 1 -15 8 -21 8 -7 17 -8 20 -3 3 6 -1 15 -8 21 -8 7 -17 8 -20 3z"/>
 <path d="M1056 482 c-3 -6 1 -15 8 -21 8 -7 17 -8 20 -3 3 6 -1 15 -8 21 -8 7 -17 8 -20 3z"/>
 <path d="M1491 477 c-6 -8 -8 -17 -5 -20 10 -9 45 13 39 24 -9 13 -21 11 -34 -4z"/>
 <path d="M1155 460 c-7 -12 32 -33 45 -25 6 4 8 10 5 14 -7 13 -44 20 -50 11z"/>
 <path d="M1385 463 c-31 -7 -41 -21 -21 -29 21 -8 69 12 61 26 -6 10 -8 11 -40 3z"/>
 </g>

<g fill="#2e3d45" stroke="none">
 <path d="M35 2525 c-14 -13 -25 -32 -25 -42 0 -13 10 -7 40 22 22 21 40 40 40 42 0 12 -35 -2 -55 -22z"/>
 <path d="M2506 2511 c21 -21 40 -37 42 -36 11 9 -14 54 -34 64 -46 20 -48 11 -8 -28z"/>
 <path d="M1125 2117 c-12 -10 -14 -16 -7 -21 15 -9 54 12 47 25 -8 12 -18 11 -40 -4z"/>
 <path d="M1506 2102 c-3 -6 1 -15 8 -21 8 -7 17 -8 20 -3 3 6 -1 15 -8 21 -8 7 -17 8 -20 3z"/>
 <path d="M981 2076 c-7 -8 -8 -17 -3 -20 6 -3 15 1 21 8 7 8 8 17 3 20 -6 3 -15 -1 -21 -8z"/>
 <path d="M785 1970 c-4 -6 -10 -8 -15 -5 -5 3 -11 1 -14 -4 -4 -5 -2 -12 3 -15 5 -4 12 -2 16 4 4 6 10 8 15 5 5 -3 11 -1 14 4 4 5 2 12 -3 15 -5 4 -12 2 -16 -4z"/>
 <path d="M1816 1941 c-6 -8 5 -20 31 -35 23 -13 22 12 -2 28 -13 9 -26 12 -29 7z"/>
 <path d="M666 1871 c-15 -16 -23 -31 -18 -35 5 -3 21 8 36 23 15 16 23 31 18 35 -5 3 -21 -8 -36 -23z"/>
 <path d="M579 1786 c-1 -3 -2 -9 -3 -13 -1 -5 -5 -13 -9 -20 -4 -6 -3 -14 3 -18 5 -3 11 -4 11 -1 1 3 2 9 3 14 1 4 5 12 9 19 4 6 3 14 -3 18 -5 3 -11 4 -11 1z"/>
 <path d="M1996 1742 c-3 -6 1 -15 8 -21 8 -7 17 -8 20 -3 3 6 -1 15 -8 21 -8 7 -17 8 -20 3z"/>
 <path d="M2095 1540 c-4 -6 -3 -16 3 -22 6 -6 12 -6 17 2 4 6 3 16 -3 22 -6 6 -12 6 -17 -2z"/>
 <path d="M441 1496 c-7 -8 -8 -17 -3 -20 6 -3 15 1 21 8 7 8 8 17 3 20 -6 3 -15 -1 -21 -8z"/>
 <path d="M2115 1470 c-8 -13 13 -52 25 -45 9 6 2 43 -11 50 -4 3 -10 1 -14 -5z"/>
 <path d="M419 1406 c-9 -20 -10 -29 -1 -38 8 -8 14 -4 22 17 15 39 -4 58 -21 21z"/>
 <path d="M2135 1358 c-10 -25 -1 -173 10 -171 13 4 19 163 6 176 -7 7 -12 5 -16 -5z"/>
 <path d="M417 1183 c-9 -14 8 -69 19 -65 5 2 8 15 7 29 -2 30 -18 50 -26 36z"/>
 <path d="M2120 1110 c-8 -15 -9 -25 -2 -32 7 -7 14 -3 22 12 8 15 9 25 2 32 -7 7 -14 3 -22 -12z"/>
 <path d="M436 1082 c-9 -15 12 -54 25 -47 12 8 11 18 -4 40 -10 12 -16 14 -21 7z"/>
 <path d="M2101 1032 c-13 -25 2 -38 19 -16 9 10 10 18 3 25 -8 8 -14 5 -22 -9z"/>
 <path d="M465 999 c-4 -6 -3 -15 3 -21 6 -6 8 -16 6 -23 -3 -7 -1 -16 5 -19 14 -9 25 14 13 26 -6 6 -8 16 -6 23 7 17 -12 29 -21 14z"/>
 <path d="M2080 975 c-7 -8 -9 -15 -5 -15 4 0 2 -7 -5 -15 -6 -8 -9 -19 -5 -25 8 -13 27 -2 22 13 -2 7 2 19 10 29 8 9 10 18 5 22 -5 3 -15 -1 -22 -9z"/>
 <path d="M495 920 c-4 -6 -3 -16 3 -22 6 -6 12 -6 17 2 4 6 3 16 -3 22 -6 6 -12 6 -17 -2z"/>
 <path d="M2045 900 c-4 -6 -3 -16 3 -22 6 -6 12 -6 17 2 4 6 3 16 -3 22 -6 6 -12 6 -17 -2z"/>
 <path d="M515 880 c-4 -6 -3 -16 3 -22 6 -6 12 -6 17 2 4 6 3 16 -3 22 -6 6 -12 6 -17 -2z"/>
 <path d="M2021 856 c-7 -8 -8 -17 -3 -20 6 -3 15 1 21 8 7 8 8 17 3 20 -6 3 -15 -1 -21 -8z"/>
 <path d="M545 840 c-8 -13 13 -52 25 -45 9 6 2 43 -11 50 -4 3 -10 1 -14 -5z"/>
 <path d="M1982 798 c-23 -35 -18 -63 5 -32 26 34 33 53 24 58 -5 3 -18 -8 -29 -26z"/>
 <path d="M586 782 c-15 -25 152 -191 176 -176 15 9 -44 54 -62 48 -8 -3 -11 -2 -8 2 4 4 -14 32 -39 63 -26 31 -50 60 -54 64 -4 5 -10 4 -13 -1z"/>
 <path d="M1886 691 c-21 -21 -34 -41 -29 -44 6 -4 27 11 47 32 21 21 34 41 29 44 -6 4 -27 -11 -47 -32z"/>
 <path d="M1792 609 c-13 -5 -20 -13 -17 -19 8 -13 18 -13 40 3 23 17 8 28 -23 16z"/>
 <path d="M775 590 c-7 -12 32 -33 45 -25 6 4 8 10 5 14 -7 13 -44 20 -50 11z"/>
 <path d="M1745 570 c-4 -6 -10 -8 -15 -5 -5 3 -11 1 -14 -4 -4 -5 -2 -12 3 -15 5 -4 12 -2 16 4 4 6 10 8 15 5 5 -3 11 -1 14 4 4 5 2 12 -3 15 -5 4 -12 2 -16 -4z"/>
 <path d="M835 551 c-7 -12 12 -24 25 -16 11 7 4 25 -10 25 -5 0 -11 -4 -15 -9z"/>
 <path d="M956 502 c-3 -6 1 -15 8 -21 8 -7 17 -8 20 -3 3 6 -1 15 -8 21 -8 7 -17 8 -20 3z"/>
 <path d="M1016 482 c-3 -6 1 -15 8 -21 8 -7 17 -8 20 -3 3 6 -1 15 -8 21 -8 7 -17 8 -20 3z"/>
 <path d="M1531 476 c-13 -15 -5 -27 15 -19 11 4 14 -10 14 -75 0 -45 5 -84 10 -87 6 -4 8 -10 5 -14 -7 -12 32 -44 45 -36 15 9 1 28 -16 21 -8 -3 -13 -2 -13 2 1 4 1 12 0 17 -1 6 -3 52 -4 104 -2 88 -3 94 -23 97 -12 2 -27 -2 -33 -10z"/>
 <path d="M1075 460 c-7 -11 35 -31 49 -22 5 3 1 11 -9 19 -22 16 -32 16 -40 3z"/>
 <path d="M1445 457 c-12 -10 -14 -16 -7 -21 15 -9 54 12 47 25 -8 12 -18 11 -40 -4z"/>
 <path d="M1215 440 c-3 -5 0 -13 8 -16 23 -8 127 0 130 11 3 14 -129 19 -138 5z"/>
 <path d="M10 75 c0 -21 45 -65 67 -65 13 0 7 10 -22 40 -44 45 -45 46 -45 25z"/>
 <path d="M2505 50 c-29 -30 -35 -40 -22 -40 22 0 67 44 67 65 0 21 -1 20 -45 -25z"/>
 </g>

<g fill="#c9d6dc" stroke="none">
 <path d="M1245 1830 c-3 -5 0 -13 8 -16 23 -8 92 0 92 11 0 14 -92 19 -100 5z"/>
 <path d="M1155 1821 c-7 -12 12 -24 25 -16 11 7 4 25 -10 25 -5 0 -11 -4 -15 -9z"/>
 <path d="M1415 1821 c-7 -12 12 -24 25 -16 11 7 4 25 -10 25 -5 0 -11 -4 -15 -9z"/>
 <path d="M1101 1796 c-7 -8 -8 -17 -3 -20 6 -3 15 1 21 8 7 8 8 17 3 20 -6 3 -15 -1 -21 -8z"/>
 <path d="M1476 1802 c-3 -6 1 -15 8 -21 8 -7 17 -8 20 -3 3 6 -1 15 -8 21 -8 7 -17 8 -20 3z"/>
 <path d="M1065 1770 c-4 -6 -10 -8 -15 -5 -5 3 -11 1 -14 -4 -4 -5 -2 -12 3 -15 5 -4 12 -2 16 4 4 6 10 8 15 5 5 -3 11 -1 14 4 4 5 2 12 -3 15 -5 4 -12 2 -16 -4z"/>
 <path d="M1515 1771 c-7 -12 12 -24 25 -16 11 7 4 25 -10 25 -5 0 -11 -4 -15 -9z"/>
 <path d="M1191 1717 c-6 -8 -8 -17 -5 -20 10 -9 45 13 39 24 -9 13 -21 11 -34 -4z"/>
 <path d="M1375 1721 c-7 -12 12 -24 25 -16 11 7 4 25 -10 25 -5 0 -11 -4 -15 -9z"/>
 <path d="M966 1685 c-16 -24 -6 -45 11 -22 19 24 23 36 14 41 -5 3 -16 -5 -25 -19z"/>
 <path d="M1141 1696 c-9 -10 -9 -16 -1 -21 17 -10 37 12 24 25 -8 8 -15 6 -23 -4z"/>
 <path d="M1435 1700 c-10 -17 12 -37 25 -24 8 8 6 15 -4 23 -10 9 -16 9 -21 1z"/>
 <path d="M1477 1673 c-6 -11 71 -84 77 -74 7 11 -29 58 -54 71 -10 6 -21 7 -23 3z"/>
 <path d="M1636 1662 c-3 -6 1 -15 8 -21 8 -7 17 -8 20 -3 3 6 -1 15 -8 21 -8 7 -17 8 -20 3z"/>
 <path d="M1076 1641 c-10 -11 -13 -22 -8 -25 5 -3 17 3 26 13 10 11 13 22 8 25 -5 3 -17 -3 -26 -13z"/>
 <path d="M1221 1616 c-7 -8 -8 -17 -3 -20 6 -3 15 1 21 8 7 8 8 17 3 20 -6 3 -15 -1 -21 -8z"/>
 <path d="M1665 1620 c-4 -6 -3 -16 3 -22 6 -6 12 -6 17 2 4 6 3 16 -3 22 -6 6 -12 6 -17 -2z"/>
 <path d="M915 1600 c-4 -6 -3 -16 3 -22 6 -6 12 -6 17 2 4 6 3 16 -3 22 -6 6 -12 6 -17 -2z"/>
 <path d="M1035 1600 c-4 -6 -4 -14 -1 -17 3 -4 -1 -14 -10 -24 -10 -11 -12 -19 -5 -24 15 -9 33 4 27 20 -2 7 1 18 7 24 8 8 8 14 0 22 -8 8 -13 8 -18 -1z"/>
 <path d="M1395 1601 c-7 -12 12 -24 25 -16 6 4 10 3 9 -2 -1 -4 0 -11 1 -15 1 -5 3 -12 4 -18 0 -5 4 -10 9 -10 4 0 10 0 13 0 4 0 1 7 -6 15 -7 8 -9 15 -5 15 5 0 0 9 -10 20 -20 22 -31 25 -40 11z"/>
 <path d="M1555 1580 c-10 -17 12 -37 25 -24 8 8 6 15 -4 23 -10 9 -16 9 -21 1z"/>
 <path d="M1676 1561 c-3 -5 1 -14 8 -20 16 -13 32 2 21 19 -8 12 -22 13 -29 1z"/>
 <path d="M901 1532 c-7 -14 -11 -120 -11 -304 0 -234 3 -288 15 -304 8 -10 15 -16 15 -11 3 40 0 630 -4 634 -2 3 -9 -4 -15 -15z"/>
 <path d="M1135 1540 c-4 -6 -3 -16 3 -22 6 -6 12 -6 17 2 4 6 3 16 -3 22 -6 6 -12 6 -17 -2z"/>
 <path d="M1251 1506 c-13 -13 -18 -26 -13 -30 5 -3 19 5 31 18 13 13 18 26 13 30 -5 3 -19 -5 -31 -18z"/>
 <path d="M1460 1516 c-1 -13 0 -596 0 -603 0 -5 7 1 15 11 22 30 22 568 0 586 -8 7 -15 10 -15 6z"/>
 <path d="M1577 1504 c-9 -9 -7 -946 2 -1099 4 -68 10 -108 16 -105 12 6 8 1190 -4 1203 -4 4 -10 4 -14 1z"/>
 <path d="M1125 1479 c-10 -26 -1 -359 10 -359 14 0 19 350 6 363 -7 7 -12 5 -16 -4z"/>
 <path d="M1222 1097 c-11 -13 -50 -15 -69 -4 -7 4 -14 3 -18 -3 -3 -5 -4 -11 -1 -11 13 -3 22 -6 39 -13 10 -5 23 -3 31 3 7 6 15 9 18 6 3 -3 11 1 17 9 7 8 8 17 3 20 -6 3 -14 0 -20 -7z"/>
 <path d="M1025 920 c-4 -6 -3 -16 3 -22 6 -6 12 -6 17 2 4 6 3 16 -3 22 -6 6 -12 6 -17 -2z"/>
 <path d="M1339 926 c-1 -3 -2 -9 -3 -13 -1 -5 -5 -13 -9 -20 -4 -6 -3 -14 3 -18 5 -3 11 -4 11 -1 1 3 2 9 3 14 1 4 5 12 9 19 4 6 3 14 -3 18 -5 3 -11 4 -11 1z"/>
 <path d="M916 881 c-3 -5 1 -14 8 -20 16 -13 32 2 21 19 -8 12 -22 13 -29 1z"/>
 <path d="M1435 880 c-11 -17 5 -32 21 -19 7 6 11 15 8 20 -7 12 -21 11 -29 -1z"/>
 <path d="M1275 851 c-7 -12 12 -24 25 -16 11 7 4 25 -10 25 -5 0 -11 -4 -15 -9z"/>
 <path d="M946 842 c-6 -11 25 -59 52 -78 36 -25 31 -1 -8 44 -21 23 -41 39 -44 34z"/>
 <path d="M1387 808 c-44 -46 -40 -74 5 -31 16 15 34 36 39 45 17 32 -6 25 -44 -14z"/>
 <path d="M1235 831 c-7 -12 12 -24 25 -16 11 7 4 25 -10 25 -5 0 -11 -4 -15 -9z"/>
 <path d="M1075 731 c-7 -12 12 -24 25 -16 11 7 4 25 -10 25 -5 0 -11 -4 -15 -9z"/>
 <path d="M1275 731 c-7 -12 12 -24 25 -16 11 7 4 25 -10 25 -5 0 -11 -4 -15 -9z"/>
 <path d="M1135 720 c-3 -5 0 -13 8 -16 23 -8 92 0 92 11 0 14 -92 19 -100 5z"/>
 <path d="M1666 281 c-10 -11 -13 -22 -8 -25 5 -3 17 3 26 13 10 11 13 22 8 25 -5 3 -17 -3 -26 -13z"/>
 </g>

<g fill="#7ca4b7" stroke="none">
 <path d="M1245 1716 c-11 -8 -18 -16 -15 -16 30 -6 132 -6 135 1 15 23 -92 37 -120 15z"/>
 <path d="M1170 1695 c-7 -8 -16 -13 -20 -10 -5 3 -11 1 -14 -4 -4 -5 -2 -12 3 -15 5 -4 12 -2 16 4 4 6 10 8 15 5 4 -3 13 2 19 9 7 8 8 17 3 20 -6 3 -15 -1 -22 -9z"/>
 <path d="M1395 1701 c-7 -12 12 -24 25 -16 11 7 4 25 -10 25 -5 0 -11 -4 -15 -9z"/>
 <path d="M1455 1670 c-8 -12 32 -33 47 -24 6 4 8 3 5 -3 -4 -6 2 -18 13 -28 11 -10 17 -21 15 -26 -3 -4 -1 -10 4 -13 5 -4 12 -2 15 3 4 5 2 12 -4 16 -6 4 -8 10 -6 14 6 9 -42 56 -66 64 -10 3 -20 2 -23 -3z"/>
 <path d="M1092 1647 c-23 -25 -30 -40 -21 -47 3 -3 18 9 33 27 30 36 20 54 -12 20z"/>
 <path d="M901 1576 c-7 -8 -8 -17 -3 -20 6 -3 15 1 21 8 7 8 8 17 3 20 -6 3 -15 -1 -21 -8z"/>
 <path d="M1041 1576 c-7 -8 -8 -17 -3 -20 6 -3 15 1 21 8 7 8 8 17 3 20 -6 3 -15 -1 -21 -8z"/>
 <path d="M1556 1542 c-9 -15 12 -54 25 -47 12 8 11 18 -4 40 -10 12 -16 14 -21 7z"/>
 <path d="M1699 1543 c-9 -21 7 -988 16 -983 15 7 14 965 -1 980 -7 7 -13 8 -15 3z"/>
 <path d="M1115 1520 c-4 -6 -3 -16 3 -22 6 -6 12 -6 17 2 4 6 3 16 -3 22 -6 6 -12 6 -17 -2z"/>
 <path d="M1025 1509 c-10 -26 -1 -559 10 -562 14 -3 19 553 5 567 -6 6 -11 4 -15 -5z"/>
 <path d="M1295 1511 c-7 -12 12 -24 25 -16 11 7 4 25 -10 25 -5 0 -11 -4 -15 -9z"/>
 <path d="M1335 1479 c-10 -26 -1 -534 10 -534 14 0 19 525 5 539 -6 6 -11 4 -15 -5z"/>
 <path d="M1125 1100 c-10 -17 22 -47 35 -34 7 7 4 16 -9 28 -14 12 -21 14 -26 6z"/>
 <path d="M1226 1091 c-10 -11 -13 -22 -8 -25 5 -3 17 3 26 13 10 11 13 22 8 25 -5 3 -17 -3 -26 -13z"/>
 <path d="M896 902 c-3 -6 1 -15 9 -22 7 -6 12 -17 9 -25 -7 -16 12 -29 21 -15 4 6 2 17 -4 24 -6 7 -9 15 -6 18 3 3 -1 11 -9 17 -8 7 -17 8 -20 3z"/>
 <path d="M1460 895 c-7 -8 -9 -15 -5 -15 4 0 2 -7 -5 -15 -6 -8 -9 -19 -5 -25 8 -13 27 -2 22 13 -2 7 2 19 10 29 8 9 10 18 5 22 -5 3 -15 -1 -22 -9z"/>
 <path d="M947 824 c-9 -10 10 -42 33 -54 10 -5 21 -6 24 -2 7 11 -48 65 -57 56z"/>
 <path d="M1396 801 c-15 -16 -23 -31 -18 -35 5 -3 21 8 36 23 15 16 23 31 18 35 -5 3 -21 -8 -36 -23z"/>
 <path d="M1035 741 c-7 -12 12 -24 25 -16 11 7 4 25 -10 25 -5 0 -11 -4 -15 -9z"/>
 <path d="M1315 741 c-7 -12 12 -24 25 -16 11 7 4 25 -10 25 -5 0 -11 -4 -15 -9z"/>
 <path d="M1086 721 c-9 -15 23 -36 35 -24 8 8 5 14 -9 22 -12 6 -23 7 -26 2z"/>
 <path d="M1255 711 c-7 -12 12 -24 25 -16 11 7 4 25 -10 25 -5 0 -11 -4 -15 -9z"/>
 </g>

<g fill="#50788b" stroke="none">
 <path d="M1230 2123 c-8 -2 -21 -7 -29 -9 -9 -3 -11 -8 -5 -14 7 -7 33 -7 72 -2 38 5 65 5 71 -1 13 -13 44 0 36 14 -4 6 -16 9 -26 6 -10 -3 -22 -1 -25 4 -5 9 -68 11 -94 2z"/>
 <path d="M1085 2096 c-11 -8 -14 -16 -8 -19 6 -4 18 0 28 7 11 8 14 16 8 19 -6 4 -18 0 -28 -7z"/>
 <path d="M1455 2101 c-6 -11 29 -33 39 -24 7 7 -12 33 -25 33 -4 0 -10 -4 -14 -9z"/>
 <path d="M1011 2076 c-7 -8 -8 -17 -3 -20 6 -3 15 1 21 8 7 8 8 17 3 20 -6 3 -15 -1 -21 -8z"/>
 <path d="M1536 2082 c-3 -6 1 -15 8 -21 8 -7 17 -8 20 -3 3 6 -1 15 -8 21 -8 7 -17 8 -20 3z"/>
 <path d="M955 2061 c-7 -12 12 -24 25 -16 11 7 4 25 -10 25 -5 0 -11 -4 -15 -9z"/>
 <path d="M1595 2051 c-7 -12 12 -24 24 -16 5 3 12 1 16 -5 4 -6 11 -8 16 -4 5 3 7 10 3 15 -3 5 -9 7 -14 4 -5 -3 -11 -1 -15 5 -8 13 -22 13 -30 1z"/>
 <path d="M865 2010 c-4 -6 -10 -8 -15 -5 -5 3 -11 1 -14 -4 -4 -5 -2 -12 3 -15 5 -4 12 -2 16 4 4 6 10 8 15 5 5 -3 11 -1 14 4 4 5 2 12 -3 15 -5 4 -12 2 -16 -4z"/>
 <path d="M1716 2002 c-3 -6 1 -15 8 -21 8 -7 17 -8 20 -3 3 6 -1 15 -8 21 -8 7 -17 8 -20 3z"/>
 <path d="M801 1976 c-7 -8 -8 -17 -3 -20 6 -3 15 1 21 8 7 8 8 17 3 20 -6 3 -15 -1 -21 -8z"/>
 <path d="M1776 1961 c-6 -8 5 -20 31 -35 23 -13 22 12 -2 28 -13 9 -26 12 -29 7z"/>
 <path d="M709 1907 c-53 -40 -112 -115 -102 -130 4 -7 12 -2 22 14 20 31 89 100 120 120 16 10 21 18 14 22 -6 4 -31 -8 -54 -26z"/>
 <path d="M1173 1854 c-9 -23 11 -38 26 -20 13 16 7 36 -10 36 -5 0 -12 -7 -16 -16z"/>
 <path d="M1386 1861 c-8 -12 21 -34 34 -26 8 5 8 11 -1 21 -13 16 -25 18 -33 5z"/>
 <path d="M1114 1839 c-10 -17 13 -36 27 -22 12 12 4 33 -11 33 -5 0 -12 -5 -16 -11z"/>
 <path d="M1455 1840 c-8 -14 14 -42 27 -34 5 3 15 1 23 -6 9 -7 15 -8 20 0 9 14 -4 32 -20 26 -7 -2 -16 2 -19 10 -6 16 -22 18 -31 4z"/>
 <path d="M1074 1819 c-10 -17 13 -36 27 -22 12 12 4 33 -11 33 -5 0 -12 -5 -16 -11z"/>
 <path d="M1535 1800 c-10 -17 12 -37 25 -24 8 8 6 15 -4 23 -10 9 -16 9 -21 1z"/>
 <path d="M1040 1792 c-23 -7 -79 -64 -96 -96 -22 -44 -1 -52 30 -12 14 19 42 50 62 69 35 33 36 50 4 39z"/>
 <path d="M1957 1784 c-3 -5 3 -20 12 -33 11 -14 21 -19 25 -13 3 5 -2 20 -12 33 -11 12 -21 18 -25 13z"/>
 <path d="M561 1736 c-7 -8 -8 -17 -3 -20 6 -3 15 1 21 8 7 8 8 17 3 20 -6 3 -15 -1 -21 -8z"/>
 <path d="M1596 1732 c-3 -5 8 -22 24 -37 24 -23 33 -26 43 -16 9 10 8 15 -8 27 -34 26 -54 34 -59 26z"/>
 <path d="M2005 1720 c-4 -6 -3 -16 3 -22 6 -6 12 -6 17 2 4 6 3 16 -3 22 -6 6 -12 6 -17 -2z"/>
 <path d="M1234 1659 c-10 -17 13 -36 27 -22 12 12 4 33 -11 33 -5 0 -12 -5 -16 -11z"/>
 <path d="M1665 1660 c-4 -6 -3 -16 3 -22 6 -6 12 -6 17 2 4 6 3 16 -3 22 -6 6 -12 6 -17 -2z"/>
 <path d="M1195 1640 c-4 -6 -3 -16 3 -22 6 -6 12 -6 17 2 4 6 3 16 -3 22 -6 6 -12 6 -17 -2z"/>
 <path d="M1396 1632 c-9 -8 75 -92 86 -86 9 6 -48 80 -67 88 -7 2 -16 2 -19 -2z"/>
 <path d="M481 1576 c-7 -8 -8 -17 -3 -20 6 -3 15 1 21 8 7 8 8 17 3 20 -6 3 -15 -1 -21 -8z"/>
 <path d="M1134 1579 c-10 -17 13 -36 27 -22 12 12 4 33 -11 33 -5 0 -12 -5 -16 -11z"/>
 <path d="M2075 1560 c-4 -6 -3 -16 3 -22 6 -6 12 -6 17 2 4 6 3 16 -3 22 -6 6 -12 6 -17 -2z"/>
 <path d="M455 1520 c-4 -6 -3 -16 3 -22 6 -6 12 -6 17 2 4 6 3 16 -3 22 -6 6 -12 6 -17 -2z"/>
 <path d="M2097 1494 c-3 -4 -2 -16 4 -26 8 -15 14 -17 22 -9 8 8 7 15 -4 26 -8 9 -18 13 -22 9z"/>
 <path d="M440 1440 c-8 -15 -9 -25 -2 -32 7 -7 14 -3 22 12 8 15 9 25 2 32 -7 7 -14 3 -22 -12z"/>
 <path d="M2115 1398 c-8 -21 7 -79 20 -76 6 2 9 18 8 37 -3 40 -19 62 -28 39z"/>
 <path d="M2126 1228 c-13 -39 -15 -67 -7 -73 12 -7 31 26 31 54 0 23 -18 38 -24 19z"/>
 <path d="M436 1142 c-9 -15 12 -54 25 -47 12 8 11 18 -4 40 -10 12 -16 14 -21 7z"/>
 <path d="M2100 1090 c-8 -15 -9 -25 -2 -32 7 -7 14 -3 22 12 8 15 9 25 2 32 -7 7 -14 3 -22 -12z"/>
 <path d="M455 1061 c-4 -8 -1 -19 8 -28 19 -20 30 -1 13 22 -10 14 -15 15 -21 6z"/>
 <path d="M2081 1016 c-7 -8 -8 -17 -3 -20 6 -3 15 1 21 8 7 8 8 17 3 20 -6 3 -15 -1 -21 -8z"/>
 <path d="M1314 926 c-4 -10 -2 -22 4 -28 8 -8 13 -7 18 6 4 10 2 22 -4 28 -8 8 -13 7 -18 -6z"/>
 <path d="M1045 920 c-4 -6 -3 -16 3 -22 6 -6 12 -6 17 2 4 6 3 16 -3 22 -6 6 -12 6 -17 -2z"/>
 <path d="M1095 880 c-4 -6 -3 -16 3 -22 6 -6 12 -6 17 2 4 6 3 16 -3 22 -6 6 -12 6 -17 -2z"/>
 <path d="M1261 876 c-9 -10 -9 -16 -1 -21 17 -10 37 12 24 25 -8 8 -15 6 -23 -4z"/>
 <path d="M2019 886 c-1 -3 -2 -9 -3 -13 -1 -5 -5 -13 -9 -20 -4 -6 -3 -14 3 -18 5 -3 11 -4 11 -1 1 3 2 9 3 14 1 4 5 12 9 19 4 6 3 14 -3 18 -5 3 -11 4 -11 1z"/>
 <path d="M1146 862 c-10 -16 21 -34 51 -30 43 5 36 32 -9 36 -20 2 -39 -1 -42 -6z"/>
 <path d="M555 840 c-10 -17 12 -37 25 -24 8 8 6 15 -4 23 -10 9 -16 9 -21 1z"/>
 <path d="M1974 814 c-4 -10 -9 -22 -11 -26 -2 -4 1 -9 6 -13 15 -9 35 35 22 48 -7 7 -12 5 -17 -9z"/>
 <path d="M597 783 c-3 -5 6 -25 22 -43 15 -19 30 -29 33 -24 4 5 -6 25 -21 43 -16 19 -31 30 -34 24z"/>
 <path d="M1886 711 c-21 -21 -34 -41 -29 -44 6 -4 27 11 47 32 21 21 34 41 29 44 -6 4 -27 -11 -47 -32z"/>
 <path d="M696 671 c-5 -8 5 -19 46 -49 9 -8 19 -9 22 -4 3 6 -10 22 -28 36 -19 14 -37 22 -40 17z"/>
 <path d="M1771 611 c-13 -10 -20 -21 -15 -23 12 -8 54 9 54 21 0 19 -16 19 -39 2z"/>
 <path d="M795 590 c-7 -11 35 -31 49 -22 5 3 1 11 -9 19 -22 16 -32 16 -40 3z"/>
 <path d="M1721 576 c-7 -8 -8 -17 -3 -20 6 -3 15 1 21 8 7 8 8 17 3 20 -6 3 -15 -1 -21 -8z"/>
 <path d="M856 561 c-3 -5 1 -14 8 -20 16 -13 32 2 21 19 -8 12 -22 13 -29 1z"/>
 <path d="M896 541 c-3 -5 1 -14 8 -20 16 -13 32 2 21 19 -8 12 -22 13 -29 1z"/>
 <path d="M996 501 c-3 -5 1 -14 8 -20 16 -13 32 2 21 19 -8 12 -22 13 -29 1z"/>
 <path d="M1552 499 c-13 -5 -20 -13 -17 -19 8 -13 18 -13 40 3 23 17 8 28 -23 16z"/>
 <path d="M1066 481 c-9 -15 23 -36 35 -24 8 8 5 14 -9 22 -12 6 -23 7 -26 2z"/>
 <path d="M1471 476 c-9 -10 -9 -16 -1 -21 13 -8 42 14 34 26 -8 13 -20 11 -33 -5z"/>
 <path d="M1163 457 c-9 -14 49 -27 120 -26 79 1 119 9 118 23 -1 11 -231 14 -238 3z"/>
 </g>

<g fill="#1d272c" stroke="none">
 <path d="M1202 2162 c-39 -12 -30 -27 18 -30 24 -2 51 -8 58 -14 9 -8 16 -8 24 0 7 7 31 12 54 12 43 0 64 13 43 25 -16 10 -170 16 -197 7z"/>
 <path d="M1066 2137 c-18 -13 -17 -15 14 -30 25 -13 36 -14 46 -6 15 12 9 33 -7 23 -5 -3 -8 0 -7 7 4 18 -24 22 -46 6z"/>
 <path d="M1459 2143 c-1 -5 -1 -12 0 -16 1 -5 -3 -6 -8 -3 -5 4 -12 2 -16 -3 -3 -6 3 -14 13 -20 13 -7 24 -5 41 9 l24 18 -21 11 c-24 13 -32 14 -33 4z"/>
 <path d="M1005 2116 c-11 -8 -24 -12 -30 -9 -21 8 -36 -22 -21 -42 13 -18 42 -13 31 6 -13 20 7 30 25 14 23 -21 47 -10 28 12 -7 9 -11 18 -10 20 9 12 -7 11 -23 -1z"/>
 <path d="M1526 2111 c-22 -24 -7 -35 29 -21 23 9 25 13 15 25 -16 20 -23 19 -44 -4z"/>
 <path d="M1587 2092 c-21 -23 -12 -34 19 -22 24 9 40 -1 29 -19 -3 -5 -1 -12 4 -16 12 -7 34 32 26 46 -4 5 -12 8 -18 6 -7 -2 -19 2 -28 9 -14 12 -18 12 -32 -4z"/>
 <path d="M895 2070 c-7 -11 35 -31 49 -22 5 3 1 11 -9 19 -22 16 -32 16 -40 3z"/>
 <path d="M1679 2068 c-5 -17 -4 -50 2 -54 11 -6 31 34 24 46 -5 9 -24 14 -26 8z"/>
 <path d="M855 2051 c-6 -11 29 -33 39 -24 7 7 -12 33 -25 33 -4 0 -10 -4 -14 -9z"/>
 <path d="M1715 2040 c-10 -17 12 -37 25 -24 8 8 6 15 -4 23 -10 9 -16 9 -21 1z"/>
 <path d="M813 2029 c-26 -10 -27 -13 -12 -40 5 -11 14 -17 20 -14 5 4 6 11 3 17 -5 7 -1 9 9 5 8 -3 21 0 27 8 16 19 -17 36 -47 24z"/>
 <path d="M1750 2004 c-12 -14 -11 -15 13 -18 6 0 12 -7 12 -13 0 -16 40 -45 49 -36 4 4 33 -19 65 -51 34 -33 61 -54 65 -47 9 14 -100 122 -118 115 -15 -6 -30 12 -31 35 0 21 -41 33 -55 15z"/>
 <path d="M733 1971 c-36 -26 -44 -45 -34 -79 1 -1 12 5 25 14 14 8 23 21 20 28 -4 12 16 27 38 30 15 2 18 14 5 25 -11 8 -23 5 -54 -18z"/>
 <path d="M597 1839 c-20 -25 -23 -37 -16 -51 12 -22 21 -18 48 21 17 24 18 31 7 46 -12 16 -15 15 -39 -16z"/>
 <path d="M1965 1800 c-3 -5 3 -18 15 -30 11 -11 18 -20 15 -20 -3 0 7 -19 23 -42 15 -24 43 -74 60 -111 18 -37 37 -65 42 -62 14 9 11 36 -8 67 -47 74 -71 121 -66 129 3 5 -4 13 -15 17 -11 4 -20 11 -19 15 2 37 -31 63 -47 37z"/>
 <path d="M538 1763 c0 -4 -2 -12 -3 -18 -1 -11 -35 -73 -65 -120 -21 -34 -25 -61 -10 -70 5 -3 21 18 34 47 13 29 36 70 50 90 32 47 36 71 14 76 -10 2 -19 0 -20 -5z"/>
 <path d="M434 1536 c-8 -21 3 -49 16 -41 5 3 10 15 10 25 0 25 -18 36 -26 16z"/>
 <path d="M2124 1516 c-8 -21 3 -49 16 -41 5 3 10 15 10 25 0 25 -18 36 -26 16z"/>
 <path d="M415 1477 c-9 -22 -2 -62 10 -60 6 1 11 14 13 29 4 32 -14 56 -23 31z"/>
 <path d="M2144 1416 c-8 -21 3 -49 16 -41 5 3 10 15 10 25 0 25 -18 36 -26 16z"/>
 <path d="M395 1338 c-10 -24 -1 -123 10 -121 14 4 19 113 6 126 -7 7 -12 5 -16 -5z"/>
 <path d="M2148 1183 c-8 -14 -3 -38 7 -41 12 -3 16 36 4 43 -4 3 -9 2 -11 -2z"/>
 <path d="M414 1116 c-8 -21 3 -49 16 -41 5 3 10 15 10 25 0 25 -18 36 -26 16z"/>
 <path d="M435 1040 c-4 -6 -3 -16 3 -22 6 -6 12 -6 17 2 4 6 3 16 -3 22 -6 6 -12 6 -17 -2z"/>
 <path d="M2105 1000 c-4 -6 -3 -16 3 -22 6 -6 12 -6 17 2 4 6 3 16 -3 22 -6 6 -12 6 -17 -2z"/>
 <path d="M455 980 c-4 -6 -3 -16 3 -22 6 -6 12 -6 17 2 4 6 3 16 -3 22 -6 6 -12 6 -17 -2z"/>
 <path d="M2045 880 c-4 -6 -3 -16 3 -22 6 -6 12 -6 17 2 4 6 3 16 -3 22 -6 6 -12 6 -17 -2z"/>
 <path d="M1936 721 c-21 -21 -34 -41 -29 -44 6 -4 27 11 47 32 21 21 34 41 29 44 -6 4 -27 -11 -47 -32z"/>
 <path d="M1856 641 c-10 -11 -13 -22 -8 -25 5 -3 17 3 26 13 10 11 13 22 8 25 -5 3 -17 -3 -26 -13z"/>
 <path d="M1725 549 c-10 -26 -1 -249 10 -249 14 0 19 240 6 253 -7 7 -12 5 -16 -4z"/>
 <path d="M1555 478 c-8 -26 0 -198 10 -195 13 3 17 195 4 203 -5 3 -11 -1 -14 -8z"/>
 <path d="M1035 450 c-8 -13 20 -24 41 -16 20 8 9 26 -16 26 -10 0 -22 -5 -25 -10z"/>
 <path d="M1495 451 c-7 -12 12 -24 25 -16 11 7 4 25 -10 25 -5 0 -11 -4 -15 -9z"/>
 <path d="M1155 430 c-8 -13 20 -24 41 -16 20 8 9 26 -16 26 -10 0 -22 -5 -25 -10z"/>
 <path d="M1365 430 c-8 -12 20 -24 35 -15 6 3 8 11 5 16 -8 12 -32 12 -40 -1z"/>
 <path d="M1706 281 c-4 -6 -4 -15 -1 -21 3 -5 0 -7 -8 -4 -18 7 -32 -12 -16 -22 17 -10 56 33 42 47 -8 8 -13 8 -17 0z"/>
 <path d="M1596 251 c-8 -12 30 -43 49 -39 23 4 14 23 -12 23 -12 -1 -20 3 -17 6 2 4 0 10 -5 13 -5 4 -12 2 -15 -3z"/>
 </g>

<g fill="#59869b" stroke="none">
 <path d="M1235 2110 c-3 -5 0 -13 8 -16 23 -8 102 0 102 11 0 14 -102 19 -110 5z"/>
 <path d="M1095 2097 c-10 -8 -14 -16 -9 -19 14 -9 56 11 49 22 -8 13 -18 13 -40 -3z"/>
 <path d="M1435 2101 c-7 -13 32 -34 47 -25 7 5 5 11 -7 21 -22 15 -32 16 -40 4z"/>
 <path d="M1021 2076 c-7 -8 -8 -17 -3 -20 6 -3 15 1 21 8 7 8 8 17 3 20 -6 3 -15 -1 -21 -8z"/>
 <path d="M1515 2081 c-6 -11 29 -33 39 -24 7 7 -12 33 -25 33 -4 0 -10 -4 -14 -9z"/>
 <path d="M1575 2061 c-7 -12 12 -24 25 -16 11 7 4 25 -10 25 -5 0 -11 -4 -15 -9z"/>
 <path d="M956 2051 c-4 -6 -13 -8 -20 -5 -17 7 -30 -12 -16 -21 6 -4 16 -2 23 3 7 6 15 11 20 11 8 1 11 11 4 17 -3 3 -8 1 -11 -5z"/>
 <path d="M1635 2031 c-7 -12 12 -24 25 -16 11 7 4 25 -10 25 -5 0 -11 -4 -15 -9z"/>
 <path d="M1675 2011 c-7 -12 12 -24 25 -16 11 7 4 25 -10 25 -5 0 -11 -4 -15 -9z"/>
 <path d="M1716 1991 c-4 -5 -2 -12 4 -16 5 -3 10 -3 10 1 0 3 6 1 14 -5 10 -8 16 -9 21 -1 3 5 4 11 1 11 -3 1 -9 2 -13 3 -5 1 -13 5 -20 9 -6 4 -14 3 -17 -2z"/>
 <path d="M805 1970 c-4 -6 -10 -8 -15 -5 -5 3 -11 1 -14 -4 -4 -5 -2 -12 3 -15 5 -4 12 -2 16 4 4 6 10 8 15 5 5 -3 11 -1 14 4 4 5 2 12 -3 15 -5 4 -12 2 -16 -4z"/>
 <path d="M1776 1951 c-7 -11 55 -52 68 -44 5 3 0 12 -10 20 -34 26 -53 33 -58 24z"/>
 <path d="M673 1867 c-32 -33 -52 -61 -48 -67 5 -8 18 1 37 24 16 19 43 46 60 59 20 16 26 27 19 32 -7 4 -34 -15 -68 -48z"/>
 <path d="M1161 1856 c-9 -10 -9 -16 -1 -21 17 -10 37 12 24 25 -8 8 -15 6 -23 -4z"/>
 <path d="M1406 1861 c-9 -15 23 -36 35 -24 8 8 5 14 -9 22 -12 6 -23 7 -26 2z"/>
 <path d="M1926 1822 c-3 -5 3 -17 14 -27 11 -10 17 -21 15 -26 -3 -4 -1 -10 4 -13 5 -4 12 -2 15 3 4 5 2 12 -4 16 -6 4 -8 10 -5 14 2 5 -4 16 -14 25 -11 10 -22 13 -25 8z"/>
 <path d="M1516 1811 c-4 -5 -2 -12 4 -16 5 -3 10 -3 10 1 0 3 6 1 14 -5 10 -8 16 -9 21 -1 3 5 4 11 1 11 -3 1 -9 2 -13 3 -5 1 -13 5 -20 9 -6 4 -14 3 -17 -2z"/>
 <path d="M1035 1800 c-11 -17 5 -32 21 -19 7 6 11 15 8 20 -7 12 -21 11 -29 -1z"/>
 <path d="M579 1766 c-1 -3 -2 -9 -3 -13 -1 -5 -5 -13 -9 -20 -4 -6 -3 -14 3 -18 5 -3 11 -4 11 -1 1 3 2 9 3 14 1 4 5 12 9 19 4 6 3 14 -3 18 -5 3 -11 4 -11 1z"/>
 <path d="M1596 1752 c-3 -5 3 -17 13 -26 11 -10 22 -13 25 -8 3 5 -3 17 -13 26 -11 10 -22 13 -25 8z"/>
 <path d="M1987 1743 c-4 -6 0 -18 7 -28 8 -11 16 -14 19 -8 4 6 0 18 -7 28 -8 11 -16 14 -19 8z"/>
 <path d="M541 1696 c-7 -8 -8 -17 -3 -20 6 -3 15 1 21 8 7 8 8 17 3 20 -6 3 -15 -1 -21 -8z"/>
 <path d="M941 1696 c-9 -10 -9 -16 -1 -21 17 -10 37 12 24 25 -8 8 -15 6 -23 -4z"/>
 <path d="M1653 1674 c-9 -23 11 -38 26 -20 13 16 7 36 -10 36 -5 0 -12 -7 -16 -16z"/>
 <path d="M515 1660 c-4 -6 -3 -16 3 -22 6 -6 12 -6 17 2 4 6 3 16 -3 22 -6 6 -12 6 -17 -2z"/>
 <path d="M906 1638 c-18 -36 -20 -54 -6 -63 11 -7 53 72 45 85 -11 18 -23 11 -39 -22z"/>
 <path d="M1356 1661 c-3 -5 1 -14 8 -20 16 -13 32 2 21 19 -8 12 -22 13 -29 1z"/>
 <path d="M1215 1651 c-7 -12 12 -24 25 -16 11 7 4 25 -10 25 -5 0 -11 -4 -15 -9z"/>
 <path d="M1396 1642 c-3 -5 8 -21 25 -36 16 -15 29 -36 29 -46 0 -21 15 -34 30 -25 13 8 -7 53 -39 88 -26 28 -36 33 -45 19z"/>
 <path d="M1675 1641 c-9 -16 15 -55 27 -43 12 12 7 44 -9 49 -6 2 -14 -1 -18 -6z"/>
 <path d="M2045 1640 c-4 -6 -2 -17 4 -24 6 -7 9 -15 6 -18 -3 -3 1 -11 9 -17 8 -7 17 -8 20 -3 3 6 -1 15 -9 22 -7 6 -12 17 -9 25 7 16 -12 29 -21 15z"/>
 <path d="M1157 1609 c-22 -31 -9 -46 16 -20 15 15 18 24 10 32 -8 8 -15 4 -26 -12z"/>
 <path d="M1704 1576 c-4 -10 -2 -22 4 -28 8 -8 13 -7 18 6 4 10 2 22 -4 28 -8 8 -13 7 -18 -6z"/>
 <path d="M481 1566 c-7 -8 -8 -17 -3 -20 6 -3 15 1 21 8 7 8 8 17 3 20 -6 3 -15 -1 -21 -8z"/>
 <path d="M1114 1556 c-3 -9 -3 -24 1 -33 6 -17 7 -17 21 2 8 10 13 24 11 29 -6 17 -27 18 -33 2z"/>
 <path d="M1535 1560 c-4 -6 -3 -16 3 -22 6 -6 12 -6 17 2 4 6 3 16 -3 22 -6 6 -12 6 -17 -2z"/>
 <path d="M875 1540 c-4 -6 -3 -16 3 -22 6 -6 12 -6 17 2 4 6 3 16 -3 22 -6 6 -12 6 -17 -2z"/>
 <path d="M1045 1540 c-4 -6 -3 -16 3 -22 6 -6 12 -6 17 2 4 6 3 16 -3 22 -6 6 -12 6 -17 -2z"/>
 <path d="M2085 1540 c-4 -6 -3 -16 3 -22 6 -6 12 -6 17 2 4 6 3 16 -3 22 -6 6 -12 6 -17 -2z"/>
 <path d="M460 1510 c-8 -15 -9 -25 -2 -32 7 -7 14 -3 22 12 8 15 9 25 2 32 -7 7 -14 3 -22 -12z"/>
 <path d="M1485 1520 c-4 -6 -3 -16 3 -22 6 -6 12 -6 17 2 4 6 3 16 -3 22 -6 6 -12 6 -17 -2z"/>
 <path d="M1095 1499 c-10 -26 -1 -384 10 -382 14 4 19 373 6 386 -7 7 -12 5 -16 -4z"/>
 <path d="M1315 1491 c-7 -12 12 -24 25 -16 11 7 4 25 -10 25 -5 0 -11 -4 -15 -9z"/>
 <path d="M2096 1482 c-9 -15 12 -54 25 -47 12 8 11 18 -4 40 -10 12 -16 14 -21 7z"/>
 <path d="M439 1416 c-9 -20 -10 -29 -1 -38 8 -8 14 -4 22 17 15 39 -4 58 -21 21z"/>
 <path d="M2118 1363 c-8 -17 -3 -178 7 -183 14 -8 27 69 21 124 -5 47 -19 77 -28 59z"/>
 <path d="M434 1166 c-3 -8 0 -24 6 -36 17 -31 34 -11 21 23 -12 30 -19 34 -27 13z"/>
 <path d="M2100 1104 c-9 -10 -10 -18 -3 -25 8 -8 14 -5 22 9 13 25 -2 38 -19 16z"/>
 <path d="M457 1074 c-3 -4 -2 -16 4 -26 8 -15 14 -17 22 -9 8 8 7 15 -4 26 -8 9 -18 13 -22 9z"/>
 <path d="M2081 1032 c-13 -25 2 -38 19 -16 9 10 10 18 3 25 -8 8 -14 5 -22 -9z"/>
 <path d="M476 1002 c-3 -6 1 -15 9 -22 7 -6 12 -17 9 -25 -7 -16 12 -29 21 -15 4 6 2 17 -4 24 -6 7 -9 15 -6 18 3 3 -1 11 -9 17 -8 7 -17 8 -20 3z"/>
 <path d="M2065 980 c-4 -6 -3 -16 3 -22 6 -6 12 -6 17 2 4 6 3 16 -3 22 -6 6 -12 6 -17 -2z"/>
 <path d="M875 940 c-4 -6 -3 -16 3 -22 6 -6 12 -6 17 2 4 6 3 16 -3 22 -6 6 -12 6 -17 -2z"/>
 <path d="M1034 939 c-8 -13 45 -71 58 -63 5 3 3 13 -5 22 -8 10 -17 25 -20 35 -7 19 -22 22 -33 6z"/>
 <path d="M1317 943 c-4 -3 -1 -13 6 -21 7 -9 7 -13 1 -9 -6 4 -19 -2 -29 -13 -10 -11 -21 -17 -26 -15 -4 3 -10 1 -13 -4 -4 -5 -2 -12 3 -15 5 -4 12 -2 16 4 4 6 10 8 14 6 12 -8 64 51 57 63 -8 12 -20 14 -29 4z"/>
 <path d="M1485 940 c-4 -6 -3 -16 3 -22 6 -6 12 -6 17 2 4 6 3 16 -3 22 -6 6 -12 6 -17 -2z"/>
 <path d="M535 880 c-4 -6 -3 -16 3 -22 6 -6 12 -6 17 2 4 6 3 16 -3 22 -6 6 -12 6 -17 -2z"/>
 <path d="M1105 880 c-4 -6 -3 -16 3 -22 6 -6 12 -6 17 2 4 6 3 16 -3 22 -6 6 -12 6 -17 -2z"/>
 <path d="M2001 856 c-7 -8 -8 -17 -3 -20 6 -3 15 1 21 8 7 8 8 17 3 20 -6 3 -15 -1 -21 -8z"/>
 <path d="M566 841 c-4 -5 -2 -12 4 -16 6 -4 8 -10 5 -15 -3 -5 -1 -11 4 -14 5 -4 12 -2 15 3 4 5 2 12 -4 16 -6 4 -8 10 -5 15 3 5 1 11 -4 14 -5 4 -12 2 -15 -3z"/>
 <path d="M1963 797 c-19 -24 -23 -36 -14 -41 5 -3 16 5 25 19 16 24 6 45 -11 22z"/>
 <path d="M607 783 c-15 -24 132 -171 155 -157 6 4 -3 17 -20 31 -17 13 -53 49 -80 80 -27 30 -52 51 -55 46z"/>
 <path d="M1115 690 c-8 -13 20 -24 41 -16 20 8 9 26 -16 26 -10 0 -22 -5 -25 -10z"/>
 <path d="M1215 691 c-7 -12 12 -24 25 -16 11 7 4 25 -10 25 -5 0 -11 -4 -15 -9z"/>
 <path d="M1815 640 c-10 -11 -21 -17 -26 -15 -4 3 -10 1 -13 -4 -4 -5 -2 -12 3 -15 5 -4 12 -2 16 4 4 6 10 8 14 5 5 -2 16 4 25 14 10 11 13 22 8 25 -5 3 -17 -3 -27 -14z"/>
 <path d="M775 610 c-7 -12 32 -33 45 -25 6 4 8 10 5 14 -7 13 -44 20 -50 11z"/>
 <path d="M1745 590 c-4 -6 -10 -8 -15 -5 -5 3 -11 1 -14 -4 -4 -5 -2 -12 3 -15 5 -4 12 -2 16 4 4 6 10 8 15 5 5 -3 11 -1 14 4 4 5 2 12 -3 15 -5 4 -12 2 -16 -4z"/>
 <path d="M955 511 c-7 -12 12 -24 25 -16 11 7 4 25 -10 25 -5 0 -11 -4 -15 -9z"/>
 <path d="M1531 497 c-6 -8 -8 -17 -5 -20 10 -9 45 13 39 24 -9 13 -21 11 -34 -4z"/>
 <path d="M1015 491 c-7 -12 12 -24 25 -16 11 7 4 25 -10 25 -5 0 -11 -4 -15 -9z"/>
 <path d="M1075 481 c-7 -13 32 -34 47 -25 7 5 5 11 -7 21 -22 15 -32 16 -40 4z"/>
 <path d="M1455 476 c-14 -10 -15 -15 -6 -21 8 -4 19 -1 28 8 20 19 1 30 -22 13z"/>
 <path d="M1205 460 c-3 -5 0 -13 8 -16 23 -9 152 0 152 11 0 14 -151 19 -160 5z"/>
 </g>

<g fill="#dbe5ea" stroke="none">
 <path d="M1164 1815 c-12 -8 -24 -11 -28 -8 -3 3 -14 -1 -23 -10 -10 -8 -21 -16 -25 -16 -5 -1 -8 -3 -8 -6 0 -3 0 -8 0 -11 0 -4 7 -1 15 6 8 7 15 9 15 6 0 -4 10 -1 23 6 12 6 28 13 35 14 29 5 43 14 37 24 -8 14 -17 13 -41 -5z"/>
 <path d="M1395 1821 c-6 -10 28 -33 42 -29 4 1 18 -3 31 -10 12 -7 22 -10 22 -6 0 3 6 1 14 -5 9 -8 16 -8 20 -2 4 5 2 12 -4 16 -5 3 -10 3 -10 -1 0 -4 -9 1 -20 11 -11 10 -23 15 -26 12 -4 -3 -16 0 -28 8 -24 17 -33 19 -41 6z"/>
 <path d="M1032 1752 c-23 -15 -109 -132 -97 -132 3 0 -2 -11 -10 -24 -9 -14 -12 -27 -7 -30 11 -7 38 21 29 30 -3 3 12 31 34 61 21 31 36 60 33 64 -3 5 1 6 9 4 15 -6 53 30 40 38 -4 3 -18 -2 -31 -11z"/>
 <path d="M1535 1761 c-7 -13 12 -24 28 -15 6 4 9 3 4 -1 -4 -5 11 -28 34 -51 23 -23 41 -46 41 -50 1 -17 17 -52 27 -58 21 -14 19 14 -4 48 -13 20 -21 36 -18 36 4 0 -15 23 -42 50 -51 51 -60 57 -70 41z"/>
 <path d="M1255 1730 c-3 -5 0 -13 9 -16 21 -8 71 -1 71 11 0 14 -72 19 -80 5z"/>
 <path d="M1175 1720 c-11 -17 5 -32 21 -19 7 6 11 15 8 20 -7 12 -21 11 -29 -1z"/>
 <path d="M1395 1720 c-10 -17 12 -37 25 -24 8 8 6 15 -4 23 -10 9 -16 9 -21 1z"/>
 <path d="M1076 1650 c-49 -54 -36 -70 15 -19 26 26 37 45 32 50 -6 6 -24 -5 -47 -31z"/>
 <path d="M1477 1683 c-7 -13 81 -95 88 -82 4 5 -1 19 -12 31 -27 30 -71 59 -76 51z"/>
 <path d="M1230 1615 c-7 -8 -16 -13 -20 -10 -9 5 -70 -60 -70 -75 0 -21 21 -19 29 2 9 23 61 78 61 64 0 -4 9 -2 20 4 11 6 18 15 15 21 -9 13 -21 11 -35 -6z"/>
 <path d="M1355 1621 c-7 -12 12 -24 25 -16 11 7 4 25 -10 25 -5 0 -11 -4 -15 -9z"/>
 <path d="M1396 1591 c-7 -11 39 -43 48 -34 7 7 -23 43 -35 43 -4 0 -10 -4 -13 -9z"/>
 <path d="M1021 1566 c-7 -8 -8 -17 -3 -20 6 -3 15 1 21 8 7 8 8 17 3 20 -6 3 -15 -1 -21 -8z"/>
 <path d="M1676 1551 c-9 -14 12 -63 24 -56 5 3 10 14 10 24 0 22 -26 46 -34 32z"/>
 <path d="M1579 1533 c-9 -21 7 -1053 16 -1051 15 4 14 1033 -1 1048 -7 7 -13 8 -15 3z"/>
 <path d="M1246 1511 c-10 -11 -13 -22 -8 -25 5 -3 17 3 26 13 10 11 13 22 8 25 -5 3 -17 -3 -26 -13z"/>
 <path d="M905 1509 c-10 -26 -1 -559 10 -562 14 -3 19 553 5 567 -6 6 -11 4 -15 -5z"/>
 <path d="M1455 1489 c-10 -26 -1 -554 10 -554 14 0 19 545 5 559 -6 6 -11 4 -15 -5z"/>
 <path d="M1136 1101 c-3 -5 1 -14 8 -20 16 -13 32 2 21 19 -8 12 -22 13 -29 1z"/>
 <path d="M1341 916 c-7 -8 -8 -17 -3 -20 6 -3 15 1 21 8 7 8 8 17 3 20 -6 3 -15 -1 -21 -8z"/>
 <path d="M915 900 c-4 -6 -3 -16 3 -22 6 -6 12 -6 17 2 4 6 3 16 -3 22 -6 6 -12 6 -17 -2z"/>
 <path d="M1445 900 c-4 -6 -3 -16 3 -22 6 -6 12 -6 17 2 4 6 3 16 -3 22 -6 6 -12 6 -17 -2z"/>
 <path d="M1046 882 c-3 -5 3 -17 13 -26 11 -10 22 -13 25 -8 3 5 -3 17 -13 26 -11 10 -22 13 -25 8z"/>
 <path d="M1095 841 c-7 -12 12 -24 25 -16 11 7 4 25 -10 25 -5 0 -11 -4 -15 -9z"/>
 <path d="M1255 841 c-7 -12 12 -24 25 -16 11 7 4 25 -10 25 -5 0 -11 -4 -15 -9z"/>
 <path d="M966 821 c-7 -10 -1 -15 16 -12 4 0 5 -6 2 -13 -3 -8 3 -19 15 -25 32 -17 33 3 2 33 -18 18 -31 24 -35 17z"/>
 <path d="M1155 821 c-7 -13 17 -24 40 -19 9 1 16 8 16 13 0 14 -48 19 -56 6z"/>
 <path d="M1386 811 c-10 -11 -13 -22 -8 -25 5 -3 17 3 26 13 10 11 13 22 8 25 -5 3 -17 -3 -26 -13z"/>
 <path d="M1328 760 c-14 -11 -28 -17 -31 -13 -9 8 -38 -17 -31 -28 3 -5 15 -4 27 3 12 7 24 12 27 11 12 -3 52 35 43 40 -6 4 -22 -2 -35 -13z"/>
 <path d="M1035 761 c-8 -14 3 -32 18 -29 7 1 22 -3 34 -10 12 -7 24 -8 27 -3 7 11 -22 36 -31 27 -3 -3 -14 1 -24 10 -11 10 -19 12 -24 5z"/>
 <path d="M1686 563 c-3 -3 -6 -64 -6 -133 0 -90 -4 -130 -12 -137 -16 -12 -58 -23 -55 -14 1 3 -1 7 -5 9 -19 6 -20 1 -3 -18 24 -27 43 -25 77 7 28 27 28 28 28 154 0 117 -6 150 -24 132z"/>
 </g>

<g fill="#fcfcfd" stroke="none">
 <path d="M1 2528 c0 -24 2 -28 8 -15 4 10 10 18 14 18 4 -1 7 2 6 6 0 4 8 10 18 14 13 6 9 8 -14 8 -31 1 -33 -1 -32 -31z"/>
 <path d="M2513 2551 c10 -4 18 -10 18 -14 -1 -4 2 -7 6 -6 4 0 10 -8 14 -18 6 -13 8 -9 8 15 1 30 -1 32 -31 31 -24 0 -28 -2 -15 -8z"/>
 <path d="M1150 1808 c-30 -11 -75 -35 -99 -52 -44 -32 -121 -133 -121 -160 0 -8 -4 -18 -10 -21 -6 -4 -10 -126 -10 -334 0 -365 1 -368 67 -441 19 -22 52 -47 72 -56 20 -9 44 -20 53 -25 23 -12 153 -12 176 0 9 5 30 15 45 22 49 23 104 77 126 124 20 43 21 60 21 351 l0 307 -26 34 c-74 98 -195 98 -278 1 l-36 -42 0 -206 c0 -188 2 -208 18 -223 24 -22 65 -21 85 1 15 16 17 46 17 209 0 211 2 217 62 211 l33 -3 3 -290 c2 -208 -1 -296 -9 -312 -17 -31 -77 -70 -121 -77 -55 -10 -117 10 -155 51 l-33 34 0 319 c0 306 1 321 21 357 31 56 46 70 108 100 47 24 67 27 142 27 73 -1 96 -5 141 -27 77 -38 109 -76 137 -166 7 -23 11 -230 11 -631 0 -580 1 -597 20 -615 24 -22 65 -14 81 17 18 33 26 1150 9 1226 -44 201 -190 313 -406 311 -65 0 -104 -6 -144 -21z"/>
 <path d="M1 33 c-1 -31 1 -33 32 -32 23 0 27 2 14 8 -10 4 -18 10 -18 14 1 4 -2 7 -6 6 -4 0 -10 8 -14 18 -6 13 -8 9 -8 -14z"/>
 <path d="M2550 45 c0 -8 -4 -14 -9 -13 -5 2 -9 -1 -9 -7 0 -5 -9 -12 -19 -16 -13 -6 -9 -8 15 -8 29 -1 32 2 32 29 0 17 -2 30 -5 30 -3 0 -5 -7 -5 -15z"/>
 </g>

<g fill="#6293aa" stroke="none">
 <path d="M1095 2098 c-22 -6 -48 -14 -57 -19 -10 -5 -25 -9 -33 -9 -8 0 -23 -4 -33 -9 -9 -6 -46 -24 -81 -41 -96 -47 -137 -78 -231 -176 -66 -70 -95 -109 -129 -179 -57 -115 -63 -133 -91 -265 -17 -78 -1 -322 21 -336 5 -3 9 -18 9 -33 0 -15 4 -31 8 -36 5 -6 15 -26 22 -45 45 -114 184 -281 300 -359 64 -43 166 -92 228 -109 23 -7 59 -17 80 -23 22 -6 100 -9 192 -6 149 4 191 9 235 27 11 4 28 11 37 14 17 5 17 38 14 508 -1 277 -6 521 -11 543 -6 29 -22 53 -59 90 -63 61 -117 79 -231 78 -88 0 -131 -17 -193 -76 -62 -59 -62 -60 -62 -394 l0 -304 45 -44 c44 -45 45 -45 115 -45 70 0 71 0 116 45 l45 45 -3 283 -3 282 -33 3 c-60 6 -62 0 -62 -213 0 -173 -2 -194 -18 -208 -23 -21 -66 -22 -86 -1 -14 13 -16 47 -16 219 0 134 4 206 11 210 6 4 8 14 5 22 -7 16 23 73 37 73 5 0 20 9 34 20 19 15 41 20 83 20 67 0 111 -19 145 -64 l25 -33 0 -326 c0 -309 -1 -328 -20 -364 -27 -49 -107 -123 -143 -130 -15 -3 -30 -10 -33 -14 -3 -5 -40 -9 -83 -9 -82 0 -115 11 -181 59 -40 30 -41 31 -75 89 l-25 43 0 334 c0 226 3 336 11 340 6 4 8 14 5 22 -10 25 30 96 81 143 45 42 63 55 113 80 11 6 29 15 40 20 27 14 242 13 277 -1 64 -26 80 -35 125 -68 61 -45 110 -105 113 -139 1 -15 4 -34 7 -42 25 -68 28 -126 28 -554 0 -389 2 -457 14 -462 41 -16 232 162 292 271 6 11 20 36 31 55 25 44 63 150 63 176 0 11 5 25 11 31 15 15 16 296 1 343 -6 19 -16 55 -24 80 -42 147 -155 309 -283 405 -112 85 -150 102 -361 166 -39 12 -307 9 -359 -3z"/>
 </g>

<g fill="#273339" stroke="none">
 <path d="M38 2521 l-38 -39 0 -1202 0 -1202 39 -39 39 -39 1202 0 1202 0 39 39 39 39 0 1202 0 1202 -39 39 -39 39 -1203 0 -1204 -1 -37 -38z m1364 -386 c10 -4 16 -11 13 -16 -8 -11 33 -31 47 -23 7 5 5 12 -8 22 -18 13 -17 14 9 8 15 -3 39 -9 55 -12 26 -5 60 -18 92 -34 8 -4 15 -12 15 -19 0 -6 5 -11 10 -10 6 1 9 5 8 10 -2 5 12 0 30 -10 17 -10 32 -23 32 -29 0 -7 5 -12 10 -11 6 1 9 5 7 11 -1 5 2 6 8 3 6 -4 9 -13 6 -20 -5 -15 17 -38 27 -28 4 3 1 13 -6 22 -6 8 2 6 19 -6 34 -24 52 -43 54 -58 1 -5 8 -9 15 -7 19 4 104 -85 102 -107 -2 -26 32 -71 50 -64 10 4 14 0 11 -13 -2 -12 2 -18 11 -16 12 3 12 0 1 -12 -12 -15 -7 -21 14 -17 5 1 6 -5 3 -13 -3 -8 1 -20 8 -26 8 -7 13 -16 10 -20 -3 -4 2 -13 10 -20 8 -7 12 -17 8 -23 -3 -5 0 -15 8 -21 8 -6 15 -18 16 -26 1 -8 9 -42 18 -75 34 -126 27 -357 -15 -460 -77 -192 -194 -339 -347 -437 l-43 -28 0 -123 c0 -111 -2 -127 -21 -151 -20 -26 -52 -33 -77 -17 -29 18 -43 65 -41 134 1 37 -2 72 -7 77 -5 5 -28 4 -54 -1 -91 -21 -197 -29 -285 -24 -93 6 -183 22 -200 37 -5 4 -17 8 -26 8 -25 0 -181 83 -242 129 -160 120 -275 308 -317 516 -17 89 -2 346 21 361 5 3 9 16 9 29 0 13 5 27 11 30 6 4 8 13 5 20 -3 8 2 19 9 25 8 7 13 16 10 20 -3 4 2 13 10 20 7 6 11 18 8 26 -3 9 0 14 8 12 8 -2 14 6 15 17 2 40 4 46 13 40 12 -7 24 12 27 44 2 13 13 34 24 45 12 12 20 16 18 10 -5 -21 12 -10 58 34 41 39 45 48 19 42 -14 -2 25 39 60 63 20 14 25 16 17 5 -8 -10 -9 -19 -3 -22 11 -7 25 12 26 32 0 8 20 26 45 40 25 15 40 20 33 11 -7 -9 -10 -19 -6 -22 10 -10 32 13 27 28 -3 7 8 18 28 26 18 7 37 15 41 17 4 2 6 0 5 -5 -2 -4 2 -9 7 -10 6 -2 10 2 10 7 0 11 24 30 38 30 4 0 6 -6 5 -12 -2 -7 4 -13 12 -13 8 0 14 6 12 14 -2 8 3 18 10 22 16 11 59 12 56 2 -2 -5 0 -9 5 -10 4 -2 7 0 6 5 -1 25 209 39 263 17z"/>
 </g>

</svg>